M48
; DRILL file {KiCad (5.99.0-1101-g9de7547c2)} date Thu Mar 19 22:23:34 2020
; FORMAT={-:-/ absolute / inch / decimal}
; #@! TF.CreationDate,2020-03-19T22:23:34-06:00
; #@! TF.GenerationSoftware,Kicad,Pcbnew,(5.99.0-1101-g9de7547c2)
; #@! TF.FileFunction,Plated,1,2,PTH
FMAT,2
INCH
T1C0.0160
T2C0.0236
T3C0.0276
T4C0.0295
T5C0.0300
T6C0.0315
T7C0.0394
T8C0.0433
T9C0.0551
T10C0.1693
%
G90
G05
T1
X6.125Y-2.575
X6.175Y-2.275
T2
X1.173Y-1.3
X1.2102Y-1.2102
X1.2102Y-1.3898
X1.3Y-1.173
X1.3Y-1.427
X1.3898Y-1.2102
X1.3898Y-1.3898
X1.427Y-1.3
X3.7Y-4.25
X3.7Y-4.3091
X1.173Y-4.7
X1.2102Y-4.6102
X1.2102Y-4.7898
X1.3Y-4.573
X1.3Y-4.827
X1.3898Y-4.6102
X1.3898Y-4.7898
X1.427Y-4.7
X3.95Y-4.4
X3.95Y-4.4591
X6.573Y-1.3
X6.6102Y-1.2102
X6.6102Y-1.3898
X6.7Y-1.173
X6.7Y-1.427
X6.7898Y-1.2102
X6.7898Y-1.3898
X6.827Y-1.3
X3.6Y-4.075
X3.6Y-4.1341
X6.573Y-4.7
X6.6102Y-4.6102
X6.6102Y-4.7898
X6.7Y-4.573
X6.7Y-4.827
X6.7898Y-4.6102
X6.7898Y-4.7898
X6.827Y-4.7
X3.75Y-2.175
X3.8091Y-2.175
X4.55Y-1.825
X4.6091Y-1.825
T3
X2.0Y-3.6
X2.2Y-3.5
X2.2Y-3.7
X3.25Y-2.55
X3.45Y-2.45
X3.45Y-2.65
X1.575Y-2.375
X1.675Y-2.275
X1.675Y-2.475
X2.0Y-2.375
X2.1Y-2.275
X2.1Y-2.475
X2.85Y-2.375
X2.95Y-2.275
X2.95Y-2.475
X3.0Y-3.5
X3.0Y-3.7
X3.2Y-3.6
X5.4Y-3.2
X5.5Y-3.3
X5.6Y-3.2
X5.25Y-4.275
X5.45Y-4.175
X5.45Y-4.375
X5.4Y-2.75
X5.5Y-2.85
X5.6Y-2.75
X2.0Y-3.94
X2.2Y-3.84
X2.2Y-4.04
X2.425Y-2.375
X2.525Y-2.275
X2.525Y-2.475
X3.0Y-3.15
X3.0Y-3.35
X3.2Y-3.25
T4
X3.44Y-2.22
X3.44Y-2.27
X3.44Y-2.32
X1.625Y-3.675
X1.625Y-3.725
X1.625Y-3.775
X4.875Y-4.15
X4.875Y-4.2
X4.875Y-4.25
X1.6Y-2.675
X1.6Y-2.725
X1.6Y-2.775
X4.575Y-3.05
X4.575Y-3.1
X4.575Y-3.15
X4.3Y-2.725
X4.3Y-2.775
X4.3Y-2.825
X4.725Y-4.325
X4.725Y-4.375
X4.725Y-4.425
X5.125Y-2.65
X5.125Y-2.7
X5.125Y-2.75
X3.24Y-2.22
X3.24Y-2.27
X3.24Y-2.32
X2.825Y-2.9
X2.875Y-2.9
X2.925Y-2.9
X1.825Y-3.675
X1.825Y-3.725
X1.825Y-3.775
X2.825Y-2.7
X2.875Y-2.7
X2.925Y-2.7
X3.425Y-3.325
X3.425Y-3.375
X3.425Y-3.425
X1.625Y-2.925
X1.625Y-2.975
X1.625Y-3.025
X3.95Y-4.175
X3.95Y-4.225
X3.95Y-4.275
X4.3Y-2.475
X4.3Y-2.525
X4.3Y-2.575
T5
X2.0Y-3.15
X2.175Y-3.125
X2.75Y-3.8
X3.075Y-4.075
X3.125Y-4.35
X3.125Y-4.5
X3.2Y-2.4
X3.52Y-2.4
X3.675Y-4.15
X3.825Y-2.725
X3.825Y-2.875
X3.9Y-1.825
X3.9Y-2.825
X3.9Y-3.825
X3.95Y-4.05
X3.975Y-1.85
X4.15Y-3.525
X4.25Y-3.15
X4.25Y-3.525
X4.35Y-4.25
X4.35Y-4.35
X4.6Y-3.775
X4.775Y-2.725
T6
X1.725Y-1.6
X1.725Y-2.1
X3.375Y-4.05
X3.375Y-4.45
X3.75Y-3.75
X3.75Y-3.85
X3.75Y-3.95
X3.75Y-4.05
X4.05Y-3.75
X4.05Y-3.85
X4.05Y-3.95
X4.05Y-4.05
X4.475Y-3.575
X4.475Y-3.975
X5.4Y-3.5
X5.4Y-4.0
X3.15Y-1.3
X3.65Y-1.3
X4.2Y-3.725
X4.2Y-3.9219
X3.75Y-1.7
X3.75Y-1.8
X3.75Y-1.9
X3.75Y-2.0
X4.05Y-1.7
X4.05Y-1.8
X4.05Y-1.9
X4.05Y-2.0
X4.1Y-4.425
X4.5Y-4.425
X2.175Y-1.525
X2.175Y-2.025
X3.625Y-1.7
X3.625Y-2.1
X4.1Y-4.3
X4.5Y-4.3
X3.7Y-3.2
X3.7Y-3.3
X3.7Y-3.4
X3.7Y-3.5
X4.0Y-3.2
X4.0Y-3.3
X4.0Y-3.4
X4.0Y-3.5
X6.25Y-2.4
X6.25Y-2.8
X3.625Y-2.475
X3.625Y-2.6719
X5.95Y-2.3
X5.95Y-2.8
X4.85Y-3.575
X4.85Y-3.975
X3.25Y-1.7
X3.25Y-2.1
X2.45Y-3.175
X2.85Y-3.175
X1.775Y-4.05
X1.775Y-4.45
X3.375Y-3.0
X3.375Y-3.1969
X2.025Y-1.6
X2.025Y-2.1
X3.375Y-1.7
X3.375Y-2.1
X3.075Y-2.625
X3.075Y-3.025
X2.7Y-4.05
X2.7Y-4.45
X4.1Y-4.175
X4.5Y-4.175
X2.45Y-3.55
X2.85Y-3.55
X5.8Y-3.0
X5.8Y-3.5
X4.3Y-1.7
X4.3Y-2.1
X4.325Y-3.05
X4.325Y-3.0992
X4.325Y-3.3945
X4.325Y-3.4437
X1.575Y-1.525
X1.575Y-2.025
X4.125Y-2.3
X4.425Y-2.3
X4.175Y-1.7
X4.175Y-2.1
X3.2Y-2.9
X3.6Y-2.9
X3.2Y-2.775
X3.6Y-2.775
X5.225Y-3.5
X5.225Y-4.0
X1.65Y-4.05
X1.65Y-4.45
X2.825Y-4.0531
X2.825Y-4.25
X6.4Y-2.4
X6.4Y-2.9
X4.975Y-3.575
X4.975Y-3.975
X1.6Y-3.15
X1.6Y-3.55
X3.125Y-1.7
X3.125Y-2.1
X6.4Y-1.75
X6.4Y-2.25
X1.875Y-1.525
X1.875Y-2.025
X2.325Y-1.6
X2.325Y-2.1
X1.85Y-3.3531
X1.85Y-3.55
X4.475Y-2.45
X4.475Y-2.85
X4.425Y-1.7
X4.425Y-2.1
X2.075Y-4.1547
X2.075Y-4.45
X2.45Y-3.425
X2.85Y-3.425
X3.5Y-1.7
X3.5Y-2.1
X4.725Y-2.45
X4.725Y-2.85
X2.575Y-4.05
X2.575Y-4.45
X5.1Y-4.05
X5.1Y-4.45
X3.8516Y-2.575
X3.95Y-2.575
X2.45Y-3.675
X2.85Y-3.675
X1.725Y-3.15
X1.725Y-3.55
X5.55Y-2.3
X5.55Y-2.4378
X6.0Y-3.5
X6.0Y-4.0
X4.6Y-2.45
X4.6Y-2.85
X2.625Y-1.525
X2.625Y-2.025
X4.975Y-2.45
X4.975Y-2.85
X6.2Y-3.2
X6.3Y-3.1
X6.3Y-3.3
X2.45Y-4.05
X2.45Y-4.45
X2.275Y-4.1547
X2.275Y-4.45
X4.025Y-2.2
X4.425Y-2.2
X3.8Y-3.625
X4.2Y-3.625
X2.125Y-3.1872
X2.125Y-3.325
X6.4Y-3.5
X6.4Y-4.0
X2.95Y-4.15
X2.95Y-4.25
X2.95Y-4.35
X2.95Y-4.45
X3.25Y-4.15
X3.25Y-4.25
X3.25Y-4.35
X3.25Y-4.45
X4.15Y-2.45
X4.15Y-2.85
X4.35Y-3.575
X4.35Y-3.975
X4.85Y-2.45
X4.85Y-2.85
X2.9531Y-4.025
X3.15Y-4.025
X2.475Y-1.6
X2.475Y-2.1
X3.7Y-2.775
X3.7Y-2.875
X3.7Y-2.975
X3.7Y-3.075
X4.0Y-2.775
X4.0Y-2.875
X4.0Y-2.975
X4.0Y-3.075
X3.0Y-1.7
X3.0Y-2.1
X3.8531Y-1.575
X4.05Y-1.575
X1.9Y-4.05
X1.9Y-4.45
X2.45Y-3.925
X2.85Y-3.925
X3.5Y-4.3516
X3.5Y-4.45
X5.55Y-1.95
X5.55Y-2.0878
X3.575Y-3.55
X3.575Y-3.95
X4.725Y-3.25
X5.125Y-3.25
X4.725Y-3.575
X4.725Y-3.975
X4.125Y-3.0781
X4.125Y-3.275
X3.45Y-3.55
X3.45Y-3.95
X2.2Y-2.65
X2.2Y-3.05
X2.45Y-3.8
X2.85Y-3.8
X5.7Y-3.65
X5.7Y-3.85
X5.8Y-3.75
X3.575Y-3.0
X3.575Y-3.4
X2.45Y-3.3
X2.85Y-3.3
X4.6Y-3.575
X4.6Y-3.975
T7
X6.0Y-4.25
X6.2953Y-4.25
X2.825Y-1.575
X2.825Y-1.8703
T8
X4.6Y-4.7
X3.85Y-1.3
X1.975Y-2.65
X1.975Y-3.05
X4.725Y-3.0
X5.125Y-3.0
X2.25Y-4.7
X1.85Y-2.65
X1.85Y-3.05
X2.95Y-1.3
X3.35Y-4.7
X5.0Y-4.7
X4.725Y-3.125
X5.125Y-3.125
X6.1Y-1.3
X5.8Y-2.05
X5.8Y-2.45
X1.8Y-1.3
X5.2Y-4.7
X6.3Y-1.3
X6.7Y-4.0
X2.425Y-2.65
X2.425Y-3.05
X2.7Y-1.3
X2.575Y-2.65
X2.575Y-3.05
X2.5Y-1.3
X4.8Y-4.7
X4.4Y-4.7
X5.7Y-1.3
X1.3Y-3.75
X2.0Y-1.3
X1.3Y-4.0
X2.95Y-4.7
X5.9Y-1.3
X3.15Y-4.7
X1.85Y-4.7
X2.05Y-4.7
T9
X6.3Y-1.6
X5.7Y-1.6
X5.9Y-1.6
X6.1Y-1.6
X4.975Y-3.4
X6.4Y-4.45
T10
X6.7Y-1.3
X6.7Y-4.7
X1.3Y-1.3
X1.3Y-4.7
T0
M30
