G04 #@! TF.GenerationSoftware,KiCad,Pcbnew,(5.99.0-1101-g9de7547c2)*
G04 #@! TF.CreationDate,2020-03-19T22:23:19-06:00*
G04 #@! TF.ProjectId,mini-audioscope,6d696e69-2d61-4756-9469-6f73636f7065,rev?*
G04 #@! TF.SameCoordinates,Original*
G04 #@! TF.FileFunction,Legend,Bot*
G04 #@! TF.FilePolarity,Positive*
%FSLAX46Y46*%
G04 Gerber Fmt 4.6, Leading zero omitted, Abs format (unit mm)*
G04 Created by KiCad (PCBNEW (5.99.0-1101-g9de7547c2)) date 2020-03-19 22:23:19*
%MOMM*%
%LPD*%
G01*
G04 APERTURE LIST*
%ADD10C,2.302000*%
%ADD11O,1.302000X1.702000*%
%ADD12O,1.302000X1.302000*%
%ADD13C,1.362000*%
%ADD14O,1.702000X1.702000*%
%ADD15C,1.702000*%
%ADD16C,2.102000*%
%ADD17R,2.502000X1.702000*%
%ADD18O,2.502000X1.702000*%
%ADD19C,1.302000*%
%ADD20R,1.302000X1.302000*%
%ADD21C,1.542000*%
%ADD22C,8.702000*%
%ADD23C,1.002000*%
%ADD24C,2.902000*%
%ADD25O,1.602000X1.152000*%
%ADD26R,1.602000X1.152000*%
%ADD27O,1.152000X1.602000*%
%ADD28R,1.152000X1.602000*%
%ADD29O,1.702000X1.302000*%
%ADD30R,1.702000X1.702000*%
%ADD31R,2.302000X2.302000*%
%ADD32O,2.302000X2.302000*%
G04 APERTURE END LIST*
%LPC*%
D10*
X97790000Y-33020000D03*
X68580000Y-33020000D03*
X63500000Y-33020000D03*
X144780000Y-33020000D03*
X160020000Y-33020000D03*
X149860000Y-33020000D03*
X154940000Y-33020000D03*
X45720000Y-33020000D03*
X50800000Y-33020000D03*
X170180000Y-101600000D03*
X74930000Y-33020000D03*
X33020000Y-95250000D03*
X33020000Y-101600000D03*
X132080000Y-119380000D03*
X127000000Y-119380000D03*
X121920000Y-119380000D03*
X85090000Y-119380000D03*
X80010000Y-119380000D03*
X74930000Y-119380000D03*
X46990000Y-119380000D03*
X52070000Y-119380000D03*
X57150000Y-119380000D03*
X116840000Y-119380000D03*
X111760000Y-119380000D03*
D11*
X74930000Y-57785000D03*
D12*
X72390000Y-60325000D03*
X74930000Y-62865000D03*
D11*
X64135000Y-57785000D03*
D12*
X61595000Y-60325000D03*
X64135000Y-62865000D03*
D13*
X138430000Y-106045000D03*
X133350000Y-108585000D03*
X138430000Y-111125000D03*
X76200000Y-93980000D03*
X81280000Y-91440000D03*
X76200000Y-88900000D03*
X55880000Y-97536000D03*
X50800000Y-100076000D03*
X55880000Y-102616000D03*
X76200000Y-85090000D03*
X81280000Y-82550000D03*
X76200000Y-80010000D03*
D14*
X78105000Y-76835000D03*
D15*
X78105000Y-66675000D03*
D13*
X55880000Y-88900000D03*
X50800000Y-91440000D03*
X55880000Y-93980000D03*
X87630000Y-62230000D03*
X82550000Y-64770000D03*
X87630000Y-67310000D03*
D16*
X159900000Y-107950000D03*
X152400000Y-107950000D03*
X71755000Y-47505000D03*
X71755000Y-40005000D03*
D14*
X72390000Y-96520000D03*
D15*
X62230000Y-96520000D03*
D14*
X66675000Y-51435000D03*
D15*
X66675000Y-38735000D03*
X104775000Y-78185000D03*
X104775000Y-83185000D03*
D17*
X95250000Y-95250000D03*
D18*
X102870000Y-102870000D03*
X95250000Y-97790000D03*
X102870000Y-100330000D03*
X95250000Y-100330000D03*
X102870000Y-97790000D03*
X95250000Y-102870000D03*
X102870000Y-95250000D03*
D15*
X109855000Y-87470000D03*
X109855000Y-77470000D03*
X109855000Y-86220000D03*
X109855000Y-78720000D03*
D14*
X113665000Y-90805000D03*
D15*
X113665000Y-100965000D03*
D19*
X93980000Y-109450000D03*
D20*
X93980000Y-107950000D03*
D19*
X117070000Y-46355000D03*
D20*
X115570000Y-46355000D03*
D19*
X96750000Y-55245000D03*
D20*
X95250000Y-55245000D03*
D19*
X91440000Y-105005000D03*
D20*
X91440000Y-103505000D03*
D19*
X100330000Y-113260000D03*
D20*
X100330000Y-111760000D03*
D17*
X74930000Y-105410000D03*
D18*
X82550000Y-113030000D03*
X74930000Y-107950000D03*
X82550000Y-110490000D03*
X74930000Y-110490000D03*
X82550000Y-107950000D03*
X74930000Y-113030000D03*
X82550000Y-105410000D03*
D14*
X116840000Y-100965000D03*
D15*
X116840000Y-90805000D03*
D21*
X144780000Y-97790000D03*
X147320000Y-95250000D03*
X144780000Y-92710000D03*
D14*
X147320000Y-76200000D03*
D15*
X147320000Y-88900000D03*
X162560000Y-88900000D03*
D14*
X162560000Y-101600000D03*
X162560000Y-73660000D03*
D15*
X162560000Y-60960000D03*
D14*
X162560000Y-57150000D03*
D15*
X162560000Y-44450000D03*
D14*
X92710000Y-33020000D03*
D15*
X80010000Y-33020000D03*
D14*
X151130000Y-58420000D03*
D15*
X151130000Y-71120000D03*
D14*
X152400000Y-88900000D03*
D15*
X152400000Y-101600000D03*
D14*
X137160000Y-88900000D03*
D15*
X137160000Y-101600000D03*
D14*
X132715000Y-88900000D03*
D15*
X132715000Y-101600000D03*
X52705000Y-113030000D03*
X52705000Y-105530000D03*
X57785000Y-113030000D03*
X57785000Y-105530000D03*
D14*
X62865000Y-40640000D03*
D15*
X62865000Y-53340000D03*
D14*
X59055000Y-40640000D03*
D15*
X59055000Y-53340000D03*
D14*
X55245000Y-51435000D03*
D15*
X55245000Y-38735000D03*
D14*
X51435000Y-40640000D03*
D15*
X51435000Y-53340000D03*
D14*
X43815000Y-40640000D03*
D15*
X43815000Y-53340000D03*
D14*
X47625000Y-51435000D03*
D15*
X47625000Y-38735000D03*
D14*
X40005000Y-51435000D03*
D15*
X40005000Y-38735000D03*
D22*
X170180000Y-33020000D03*
D23*
X173405000Y-33020000D03*
X172460419Y-35300419D03*
X170180000Y-36245000D03*
X167899581Y-35300419D03*
X166955000Y-33020000D03*
X167899581Y-30739581D03*
X170180000Y-29795000D03*
X172460419Y-30739581D03*
D22*
X170180000Y-119380000D03*
D23*
X173405000Y-119380000D03*
X172460419Y-121660419D03*
X170180000Y-122605000D03*
X167899581Y-121660419D03*
X166955000Y-119380000D03*
X167899581Y-117099581D03*
X170180000Y-116155000D03*
X172460419Y-117099581D03*
D22*
X33020000Y-119380000D03*
D23*
X36245000Y-119380000D03*
X35300419Y-121660419D03*
X33020000Y-122605000D03*
X30739581Y-121660419D03*
X29795000Y-119380000D03*
X30739581Y-117099581D03*
X33020000Y-116155000D03*
X35300419Y-117099581D03*
D22*
X33020000Y-33020000D03*
D23*
X36245000Y-33020000D03*
X35300419Y-35300419D03*
X33020000Y-36245000D03*
X30739581Y-35300419D03*
X29795000Y-33020000D03*
X30739581Y-30739581D03*
X33020000Y-29795000D03*
X35300419Y-30739581D03*
D17*
X95250000Y-43180000D03*
D18*
X102870000Y-50800000D03*
X95250000Y-45720000D03*
X102870000Y-48260000D03*
X95250000Y-48260000D03*
X102870000Y-45720000D03*
X95250000Y-50800000D03*
X102870000Y-43180000D03*
D17*
X93980000Y-81280000D03*
D18*
X101600000Y-88900000D03*
X93980000Y-83820000D03*
X101600000Y-86360000D03*
X93980000Y-86360000D03*
X101600000Y-83820000D03*
X93980000Y-88900000D03*
X101600000Y-81280000D03*
D17*
X93980000Y-70485000D03*
D18*
X101600000Y-78105000D03*
X93980000Y-73025000D03*
X101600000Y-75565000D03*
X93980000Y-75565000D03*
X101600000Y-73025000D03*
X93980000Y-78105000D03*
X101600000Y-70485000D03*
D24*
X162560000Y-113030000D03*
X126365000Y-86360000D03*
X154940000Y-40640000D03*
X149860000Y-40640000D03*
X144780000Y-40640000D03*
X160020000Y-40640000D03*
D21*
X160020000Y-83820000D03*
X157480000Y-81280000D03*
X160020000Y-78740000D03*
D14*
X112395000Y-55880000D03*
D15*
X102235000Y-55880000D03*
D14*
X112395000Y-43180000D03*
D15*
X112395000Y-53340000D03*
D14*
X92075000Y-53340000D03*
D15*
X92075000Y-43180000D03*
D14*
X109220000Y-43180000D03*
D15*
X109220000Y-53340000D03*
D14*
X106045000Y-53340000D03*
D15*
X106045000Y-43180000D03*
D14*
X90805000Y-76200000D03*
D15*
X90805000Y-86360000D03*
D14*
X120015000Y-62230000D03*
D15*
X120015000Y-72390000D03*
D14*
X105410000Y-62230000D03*
D15*
X105410000Y-72390000D03*
D14*
X113665000Y-62230000D03*
D15*
X113665000Y-72390000D03*
D14*
X110490000Y-100965000D03*
D15*
X110490000Y-90805000D03*
D14*
X116840000Y-62230000D03*
D15*
X116840000Y-72390000D03*
D14*
X104140000Y-112395000D03*
D15*
X114300000Y-112395000D03*
D14*
X120015000Y-90805000D03*
D15*
X120015000Y-100965000D03*
D14*
X114300000Y-106045000D03*
D15*
X104140000Y-106045000D03*
D14*
X104140000Y-109220000D03*
D15*
X114300000Y-109220000D03*
D14*
X87630000Y-90170000D03*
D15*
X87630000Y-100330000D03*
D14*
X96520000Y-92075000D03*
D15*
X106680000Y-92075000D03*
D14*
X90805000Y-90170000D03*
D15*
X90805000Y-100330000D03*
D14*
X72390000Y-90170000D03*
D15*
X62230000Y-90170000D03*
D14*
X62230000Y-86995000D03*
D15*
X72390000Y-86995000D03*
D14*
X85725000Y-113030000D03*
D15*
X85725000Y-102870000D03*
D14*
X68580000Y-102870000D03*
D15*
X68580000Y-113030000D03*
D14*
X65405000Y-113030000D03*
D15*
X65405000Y-102870000D03*
D14*
X62230000Y-113030000D03*
D15*
X62230000Y-102870000D03*
D14*
X72390000Y-80645000D03*
D15*
X62230000Y-80645000D03*
D14*
X62230000Y-83820000D03*
D15*
X72390000Y-83820000D03*
D14*
X82550000Y-43180000D03*
D15*
X82550000Y-53340000D03*
D14*
X76200000Y-53340000D03*
D15*
X76200000Y-43180000D03*
D14*
X91440000Y-70485000D03*
D15*
X81280000Y-70485000D03*
D14*
X91440000Y-73660000D03*
D15*
X81280000Y-73660000D03*
D14*
X79375000Y-43180000D03*
D15*
X79375000Y-53340000D03*
D14*
X88900000Y-43180000D03*
D15*
X88900000Y-53340000D03*
D14*
X85725000Y-53340000D03*
D15*
X85725000Y-43180000D03*
D14*
X62230000Y-99695000D03*
D15*
X72390000Y-99695000D03*
D14*
X48260000Y-113030000D03*
D15*
X48260000Y-102870000D03*
D14*
X45085000Y-113030000D03*
D15*
X45085000Y-102870000D03*
D14*
X55880000Y-67310000D03*
D15*
X55880000Y-77470000D03*
D14*
X43815000Y-90170000D03*
D15*
X43815000Y-80010000D03*
D14*
X40640000Y-90170000D03*
D15*
X40640000Y-80010000D03*
D14*
X41910000Y-113030000D03*
D15*
X41910000Y-102870000D03*
D14*
X62230000Y-93345000D03*
D15*
X72390000Y-93345000D03*
D14*
X158750000Y-71120000D03*
D15*
X158750000Y-60960000D03*
D14*
X130175000Y-82550000D03*
D15*
X120015000Y-82550000D03*
D14*
X126365000Y-72390000D03*
D15*
X126365000Y-62230000D03*
D14*
X126365000Y-90805000D03*
D15*
X126365000Y-100965000D03*
D14*
X123190000Y-72390000D03*
D15*
X123190000Y-62230000D03*
D14*
X129540000Y-102870000D03*
D15*
X129540000Y-113030000D03*
D14*
X123190000Y-100965000D03*
D15*
X123190000Y-90805000D03*
D25*
X116205000Y-78740000D03*
X116205000Y-77470000D03*
D26*
X116205000Y-80010000D03*
X109220000Y-62865000D03*
D25*
X109220000Y-65405000D03*
X109220000Y-64135000D03*
D26*
X109220000Y-69215000D03*
D25*
X109220000Y-71755000D03*
X109220000Y-70485000D03*
X120015000Y-111125000D03*
X120015000Y-109855000D03*
D26*
X120015000Y-112395000D03*
D25*
X123825000Y-106680000D03*
X123825000Y-107950000D03*
D26*
X123825000Y-105410000D03*
D25*
X86995000Y-85725000D03*
X86995000Y-84455000D03*
D26*
X86995000Y-86995000D03*
D25*
X100330000Y-107315000D03*
X100330000Y-108585000D03*
D26*
X100330000Y-106045000D03*
D27*
X73025000Y-73660000D03*
X71755000Y-73660000D03*
D28*
X74295000Y-73660000D03*
D25*
X87376000Y-57658000D03*
X87376000Y-58928000D03*
D26*
X87376000Y-56388000D03*
D25*
X82296000Y-57658000D03*
X82296000Y-58928000D03*
D26*
X82296000Y-56388000D03*
D27*
X73025000Y-68580000D03*
X71755000Y-68580000D03*
D28*
X74295000Y-68580000D03*
D25*
X40640000Y-69215000D03*
X40640000Y-70485000D03*
D26*
X40640000Y-67945000D03*
D25*
X46355000Y-94615000D03*
X46355000Y-93345000D03*
D26*
X46355000Y-95885000D03*
D11*
X53340000Y-57785000D03*
D12*
X50800000Y-60325000D03*
X53340000Y-62865000D03*
D11*
X42545000Y-57785000D03*
D12*
X40005000Y-60325000D03*
X42545000Y-62865000D03*
D25*
X41275000Y-94615000D03*
X41275000Y-93345000D03*
D26*
X41275000Y-95885000D03*
D25*
X41275000Y-75565000D03*
X41275000Y-74295000D03*
D26*
X41275000Y-76835000D03*
D29*
X137160000Y-81280000D03*
D12*
X139700000Y-83820000D03*
X142240000Y-81280000D03*
D29*
X137160000Y-69850000D03*
D12*
X139700000Y-72390000D03*
X142240000Y-69850000D03*
D25*
X130175000Y-68580000D03*
X130175000Y-69850000D03*
D26*
X130175000Y-67310000D03*
D15*
X53975000Y-80955000D03*
X53975000Y-84455000D03*
X140970000Y-61920000D03*
X140970000Y-58420000D03*
X140970000Y-53030000D03*
X140970000Y-49530000D03*
D30*
X104775000Y-58420000D03*
D14*
X112395000Y-58420000D03*
D31*
X65405000Y-67310000D03*
D32*
X65405000Y-77470000D03*
D31*
X61595000Y-67310000D03*
D32*
X61595000Y-77470000D03*
D31*
X50165000Y-67310000D03*
D32*
X50165000Y-77470000D03*
D31*
X46990000Y-67310000D03*
D32*
X46990000Y-77470000D03*
D31*
X147320000Y-62230000D03*
D32*
X147320000Y-52070000D03*
D31*
X130175000Y-79375000D03*
D32*
X120015000Y-79375000D03*
D31*
X130175000Y-76200000D03*
D32*
X120015000Y-76200000D03*
D15*
X85725000Y-81200000D03*
X85725000Y-76200000D03*
X97830000Y-65405000D03*
D30*
X100330000Y-65405000D03*
D15*
X97870000Y-40005000D03*
X102870000Y-40005000D03*
X106680000Y-99615000D03*
X106680000Y-94615000D03*
X88900000Y-113030000D03*
X88900000Y-110530000D03*
X71755000Y-102950000D03*
X71755000Y-107950000D03*
X80010000Y-102235000D03*
X75010000Y-102235000D03*
X92075000Y-62865000D03*
X92075000Y-67865000D03*
X46990000Y-85170000D03*
X46990000Y-90170000D03*
M02*
