G04 #@! TF.GenerationSoftware,KiCad,Pcbnew,(5.99.0-1101-g9de7547c2)*
G04 #@! TF.CreationDate,2020-03-19T22:23:19-06:00*
G04 #@! TF.ProjectId,mini-audioscope,6d696e69-2d61-4756-9469-6f73636f7065,rev?*
G04 #@! TF.SameCoordinates,Original*
G04 #@! TF.FileFunction,Copper,L1,Top*
G04 #@! TF.FilePolarity,Positive*
%FSLAX46Y46*%
G04 Gerber Fmt 4.6, Leading zero omitted, Abs format (unit mm)*
G04 Created by KiCad (PCBNEW (5.99.0-1101-g9de7547c2)) date 2020-03-19 22:23:19*
%MOMM*%
%LPD*%
G01*
G04 APERTURE LIST*
%ADD10C,2.200000*%
%ADD11O,1.200000X1.600000*%
%ADD12O,1.200000X1.200000*%
%ADD13C,1.260000*%
%ADD14O,1.600000X1.600000*%
%ADD15C,1.600000*%
%ADD16C,2.000000*%
%ADD17R,2.400000X1.600000*%
%ADD18O,2.400000X1.600000*%
%ADD19C,1.200000*%
%ADD20R,1.200000X1.200000*%
%ADD21C,1.440000*%
%ADD22C,8.600000*%
%ADD23C,0.900000*%
%ADD24C,2.800000*%
%ADD25O,1.500000X1.050000*%
%ADD26R,1.500000X1.050000*%
%ADD27O,1.050000X1.500000*%
%ADD28R,1.050000X1.500000*%
%ADD29O,1.600000X1.200000*%
%ADD30R,1.600000X1.600000*%
%ADD31R,2.200000X2.200000*%
%ADD32O,2.200000X2.200000*%
%ADD33C,1.524000*%
%ADD34C,0.812800*%
%ADD35C,0.508000*%
G04 APERTURE END LIST*
D10*
X97790000Y-33020000D03*
X68580000Y-33020000D03*
X63500000Y-33020000D03*
X144780000Y-33020000D03*
X160020000Y-33020000D03*
X149860000Y-33020000D03*
X154940000Y-33020000D03*
X45720000Y-33020000D03*
X50800000Y-33020000D03*
X170180000Y-101600000D03*
X74930000Y-33020000D03*
X33020000Y-95250000D03*
X33020000Y-101600000D03*
X132080000Y-119380000D03*
X127000000Y-119380000D03*
X121920000Y-119380000D03*
X85090000Y-119380000D03*
X80010000Y-119380000D03*
X74930000Y-119380000D03*
X46990000Y-119380000D03*
X52070000Y-119380000D03*
X57150000Y-119380000D03*
X116840000Y-119380000D03*
X111760000Y-119380000D03*
D11*
X74930000Y-57785000D03*
D12*
X72390000Y-60325000D03*
X74930000Y-62865000D03*
D11*
X64135000Y-57785000D03*
D12*
X61595000Y-60325000D03*
X64135000Y-62865000D03*
D13*
X138430000Y-106045000D03*
X133350000Y-108585000D03*
X138430000Y-111125000D03*
X76200000Y-93980000D03*
X81280000Y-91440000D03*
X76200000Y-88900000D03*
X55880000Y-97536000D03*
X50800000Y-100076000D03*
X55880000Y-102616000D03*
X76200000Y-85090000D03*
X81280000Y-82550000D03*
X76200000Y-80010000D03*
D14*
X78105000Y-76835000D03*
D15*
X78105000Y-66675000D03*
D13*
X55880000Y-88900000D03*
X50800000Y-91440000D03*
X55880000Y-93980000D03*
X87630000Y-62230000D03*
X82550000Y-64770000D03*
X87630000Y-67310000D03*
D16*
X159900000Y-107950000D03*
X152400000Y-107950000D03*
X71755000Y-47505000D03*
X71755000Y-40005000D03*
D14*
X72390000Y-96520000D03*
D15*
X62230000Y-96520000D03*
D14*
X66675000Y-51435000D03*
D15*
X66675000Y-38735000D03*
X104775000Y-78185000D03*
X104775000Y-83185000D03*
D17*
X95250000Y-95250000D03*
D18*
X102870000Y-102870000D03*
X95250000Y-97790000D03*
X102870000Y-100330000D03*
X95250000Y-100330000D03*
X102870000Y-97790000D03*
X95250000Y-102870000D03*
X102870000Y-95250000D03*
D15*
X109855000Y-87470000D03*
X109855000Y-77470000D03*
X109855000Y-86220000D03*
X109855000Y-78720000D03*
D14*
X113665000Y-90805000D03*
D15*
X113665000Y-100965000D03*
D19*
X93980000Y-109450000D03*
D20*
X93980000Y-107950000D03*
D19*
X117070000Y-46355000D03*
D20*
X115570000Y-46355000D03*
D19*
X96750000Y-55245000D03*
D20*
X95250000Y-55245000D03*
D19*
X91440000Y-105005000D03*
D20*
X91440000Y-103505000D03*
D19*
X100330000Y-113260000D03*
D20*
X100330000Y-111760000D03*
D17*
X74930000Y-105410000D03*
D18*
X82550000Y-113030000D03*
X74930000Y-107950000D03*
X82550000Y-110490000D03*
X74930000Y-110490000D03*
X82550000Y-107950000D03*
X74930000Y-113030000D03*
X82550000Y-105410000D03*
D14*
X116840000Y-100965000D03*
D15*
X116840000Y-90805000D03*
D21*
X144780000Y-97790000D03*
X147320000Y-95250000D03*
X144780000Y-92710000D03*
D14*
X147320000Y-76200000D03*
D15*
X147320000Y-88900000D03*
X162560000Y-88900000D03*
D14*
X162560000Y-101600000D03*
X162560000Y-73660000D03*
D15*
X162560000Y-60960000D03*
D14*
X162560000Y-57150000D03*
D15*
X162560000Y-44450000D03*
D14*
X92710000Y-33020000D03*
D15*
X80010000Y-33020000D03*
D14*
X151130000Y-58420000D03*
D15*
X151130000Y-71120000D03*
D14*
X152400000Y-88900000D03*
D15*
X152400000Y-101600000D03*
D14*
X137160000Y-88900000D03*
D15*
X137160000Y-101600000D03*
D14*
X132715000Y-88900000D03*
D15*
X132715000Y-101600000D03*
X52705000Y-113030000D03*
X52705000Y-105530000D03*
X57785000Y-113030000D03*
X57785000Y-105530000D03*
D14*
X62865000Y-40640000D03*
D15*
X62865000Y-53340000D03*
D14*
X59055000Y-40640000D03*
D15*
X59055000Y-53340000D03*
D14*
X55245000Y-51435000D03*
D15*
X55245000Y-38735000D03*
D14*
X51435000Y-40640000D03*
D15*
X51435000Y-53340000D03*
D14*
X43815000Y-40640000D03*
D15*
X43815000Y-53340000D03*
D14*
X47625000Y-51435000D03*
D15*
X47625000Y-38735000D03*
D14*
X40005000Y-51435000D03*
D15*
X40005000Y-38735000D03*
D22*
X170180000Y-33020000D03*
D23*
X173405000Y-33020000D03*
X172460419Y-35300419D03*
X170180000Y-36245000D03*
X167899581Y-35300419D03*
X166955000Y-33020000D03*
X167899581Y-30739581D03*
X170180000Y-29795000D03*
X172460419Y-30739581D03*
D22*
X170180000Y-119380000D03*
D23*
X173405000Y-119380000D03*
X172460419Y-121660419D03*
X170180000Y-122605000D03*
X167899581Y-121660419D03*
X166955000Y-119380000D03*
X167899581Y-117099581D03*
X170180000Y-116155000D03*
X172460419Y-117099581D03*
D22*
X33020000Y-119380000D03*
D23*
X36245000Y-119380000D03*
X35300419Y-121660419D03*
X33020000Y-122605000D03*
X30739581Y-121660419D03*
X29795000Y-119380000D03*
X30739581Y-117099581D03*
X33020000Y-116155000D03*
X35300419Y-117099581D03*
D22*
X33020000Y-33020000D03*
D23*
X36245000Y-33020000D03*
X35300419Y-35300419D03*
X33020000Y-36245000D03*
X30739581Y-35300419D03*
X29795000Y-33020000D03*
X30739581Y-30739581D03*
X33020000Y-29795000D03*
X35300419Y-30739581D03*
D17*
X95250000Y-43180000D03*
D18*
X102870000Y-50800000D03*
X95250000Y-45720000D03*
X102870000Y-48260000D03*
X95250000Y-48260000D03*
X102870000Y-45720000D03*
X95250000Y-50800000D03*
X102870000Y-43180000D03*
D17*
X93980000Y-81280000D03*
D18*
X101600000Y-88900000D03*
X93980000Y-83820000D03*
X101600000Y-86360000D03*
X93980000Y-86360000D03*
X101600000Y-83820000D03*
X93980000Y-88900000D03*
X101600000Y-81280000D03*
D17*
X93980000Y-70485000D03*
D18*
X101600000Y-78105000D03*
X93980000Y-73025000D03*
X101600000Y-75565000D03*
X93980000Y-75565000D03*
X101600000Y-73025000D03*
X93980000Y-78105000D03*
X101600000Y-70485000D03*
D24*
X162560000Y-113030000D03*
X126365000Y-86360000D03*
X154940000Y-40640000D03*
X149860000Y-40640000D03*
X144780000Y-40640000D03*
X160020000Y-40640000D03*
D21*
X160020000Y-83820000D03*
X157480000Y-81280000D03*
X160020000Y-78740000D03*
D14*
X112395000Y-55880000D03*
D15*
X102235000Y-55880000D03*
D14*
X112395000Y-43180000D03*
D15*
X112395000Y-53340000D03*
D14*
X92075000Y-53340000D03*
D15*
X92075000Y-43180000D03*
D14*
X109220000Y-43180000D03*
D15*
X109220000Y-53340000D03*
D14*
X106045000Y-53340000D03*
D15*
X106045000Y-43180000D03*
D14*
X90805000Y-76200000D03*
D15*
X90805000Y-86360000D03*
D14*
X120015000Y-62230000D03*
D15*
X120015000Y-72390000D03*
D14*
X105410000Y-62230000D03*
D15*
X105410000Y-72390000D03*
D14*
X113665000Y-62230000D03*
D15*
X113665000Y-72390000D03*
D14*
X110490000Y-100965000D03*
D15*
X110490000Y-90805000D03*
D14*
X116840000Y-62230000D03*
D15*
X116840000Y-72390000D03*
D14*
X104140000Y-112395000D03*
D15*
X114300000Y-112395000D03*
D14*
X120015000Y-90805000D03*
D15*
X120015000Y-100965000D03*
D14*
X114300000Y-106045000D03*
D15*
X104140000Y-106045000D03*
D14*
X104140000Y-109220000D03*
D15*
X114300000Y-109220000D03*
D14*
X87630000Y-90170000D03*
D15*
X87630000Y-100330000D03*
D14*
X96520000Y-92075000D03*
D15*
X106680000Y-92075000D03*
D14*
X90805000Y-90170000D03*
D15*
X90805000Y-100330000D03*
D14*
X72390000Y-90170000D03*
D15*
X62230000Y-90170000D03*
D14*
X62230000Y-86995000D03*
D15*
X72390000Y-86995000D03*
D14*
X85725000Y-113030000D03*
D15*
X85725000Y-102870000D03*
D14*
X68580000Y-102870000D03*
D15*
X68580000Y-113030000D03*
D14*
X65405000Y-113030000D03*
D15*
X65405000Y-102870000D03*
D14*
X62230000Y-113030000D03*
D15*
X62230000Y-102870000D03*
D14*
X72390000Y-80645000D03*
D15*
X62230000Y-80645000D03*
D14*
X62230000Y-83820000D03*
D15*
X72390000Y-83820000D03*
D14*
X82550000Y-43180000D03*
D15*
X82550000Y-53340000D03*
D14*
X76200000Y-53340000D03*
D15*
X76200000Y-43180000D03*
D14*
X91440000Y-70485000D03*
D15*
X81280000Y-70485000D03*
D14*
X91440000Y-73660000D03*
D15*
X81280000Y-73660000D03*
D14*
X79375000Y-43180000D03*
D15*
X79375000Y-53340000D03*
D14*
X88900000Y-43180000D03*
D15*
X88900000Y-53340000D03*
D14*
X85725000Y-53340000D03*
D15*
X85725000Y-43180000D03*
D14*
X62230000Y-99695000D03*
D15*
X72390000Y-99695000D03*
D14*
X48260000Y-113030000D03*
D15*
X48260000Y-102870000D03*
D14*
X45085000Y-113030000D03*
D15*
X45085000Y-102870000D03*
D14*
X55880000Y-67310000D03*
D15*
X55880000Y-77470000D03*
D14*
X43815000Y-90170000D03*
D15*
X43815000Y-80010000D03*
D14*
X40640000Y-90170000D03*
D15*
X40640000Y-80010000D03*
D14*
X41910000Y-113030000D03*
D15*
X41910000Y-102870000D03*
D14*
X62230000Y-93345000D03*
D15*
X72390000Y-93345000D03*
D14*
X158750000Y-71120000D03*
D15*
X158750000Y-60960000D03*
D14*
X130175000Y-82550000D03*
D15*
X120015000Y-82550000D03*
D14*
X126365000Y-72390000D03*
D15*
X126365000Y-62230000D03*
D14*
X126365000Y-90805000D03*
D15*
X126365000Y-100965000D03*
D14*
X123190000Y-72390000D03*
D15*
X123190000Y-62230000D03*
D14*
X129540000Y-102870000D03*
D15*
X129540000Y-113030000D03*
D14*
X123190000Y-100965000D03*
D15*
X123190000Y-90805000D03*
D25*
X116205000Y-78740000D03*
X116205000Y-77470000D03*
D26*
X116205000Y-80010000D03*
X109220000Y-62865000D03*
D25*
X109220000Y-65405000D03*
X109220000Y-64135000D03*
D26*
X109220000Y-69215000D03*
D25*
X109220000Y-71755000D03*
X109220000Y-70485000D03*
X120015000Y-111125000D03*
X120015000Y-109855000D03*
D26*
X120015000Y-112395000D03*
D25*
X123825000Y-106680000D03*
X123825000Y-107950000D03*
D26*
X123825000Y-105410000D03*
D25*
X86995000Y-85725000D03*
X86995000Y-84455000D03*
D26*
X86995000Y-86995000D03*
D25*
X100330000Y-107315000D03*
X100330000Y-108585000D03*
D26*
X100330000Y-106045000D03*
D27*
X73025000Y-73660000D03*
X71755000Y-73660000D03*
D28*
X74295000Y-73660000D03*
D25*
X87376000Y-57658000D03*
X87376000Y-58928000D03*
D26*
X87376000Y-56388000D03*
D25*
X82296000Y-57658000D03*
X82296000Y-58928000D03*
D26*
X82296000Y-56388000D03*
D27*
X73025000Y-68580000D03*
X71755000Y-68580000D03*
D28*
X74295000Y-68580000D03*
D25*
X40640000Y-69215000D03*
X40640000Y-70485000D03*
D26*
X40640000Y-67945000D03*
D25*
X46355000Y-94615000D03*
X46355000Y-93345000D03*
D26*
X46355000Y-95885000D03*
D11*
X53340000Y-57785000D03*
D12*
X50800000Y-60325000D03*
X53340000Y-62865000D03*
D11*
X42545000Y-57785000D03*
D12*
X40005000Y-60325000D03*
X42545000Y-62865000D03*
D25*
X41275000Y-94615000D03*
X41275000Y-93345000D03*
D26*
X41275000Y-95885000D03*
D25*
X41275000Y-75565000D03*
X41275000Y-74295000D03*
D26*
X41275000Y-76835000D03*
D29*
X137160000Y-81280000D03*
D12*
X139700000Y-83820000D03*
X142240000Y-81280000D03*
D29*
X137160000Y-69850000D03*
D12*
X139700000Y-72390000D03*
X142240000Y-69850000D03*
D25*
X130175000Y-68580000D03*
X130175000Y-69850000D03*
D26*
X130175000Y-67310000D03*
D15*
X53975000Y-80955000D03*
X53975000Y-84455000D03*
X140970000Y-61920000D03*
X140970000Y-58420000D03*
X140970000Y-53030000D03*
X140970000Y-49530000D03*
D30*
X104775000Y-58420000D03*
D14*
X112395000Y-58420000D03*
D31*
X65405000Y-67310000D03*
D32*
X65405000Y-77470000D03*
D31*
X61595000Y-67310000D03*
D32*
X61595000Y-77470000D03*
D31*
X50165000Y-67310000D03*
D32*
X50165000Y-77470000D03*
D31*
X46990000Y-67310000D03*
D32*
X46990000Y-77470000D03*
D31*
X147320000Y-62230000D03*
D32*
X147320000Y-52070000D03*
D31*
X130175000Y-79375000D03*
D32*
X120015000Y-79375000D03*
D31*
X130175000Y-76200000D03*
D32*
X120015000Y-76200000D03*
D15*
X85725000Y-81200000D03*
X85725000Y-76200000D03*
X97830000Y-65405000D03*
D30*
X100330000Y-65405000D03*
D15*
X97870000Y-40005000D03*
X102870000Y-40005000D03*
X106680000Y-99615000D03*
X106680000Y-94615000D03*
X88900000Y-113030000D03*
X88900000Y-110530000D03*
X71755000Y-102950000D03*
X71755000Y-107950000D03*
X80010000Y-102235000D03*
X75010000Y-102235000D03*
X92075000Y-62865000D03*
X92075000Y-67865000D03*
X46990000Y-85170000D03*
X46990000Y-90170000D03*
D33*
X93345000Y-105410000D03*
X55245000Y-79375000D03*
X50800000Y-80010000D03*
X107950000Y-80010000D03*
X99060000Y-97155000D03*
X100330000Y-102870000D03*
X100965000Y-46990000D03*
X99060000Y-46355000D03*
X97155000Y-73025000D03*
X97155000Y-69215000D03*
D34*
X155575000Y-65405000D03*
D33*
X79375000Y-114300000D03*
X79375000Y-110490000D03*
X99060000Y-71755000D03*
X116840000Y-95885000D03*
X110490000Y-110490000D03*
X110490000Y-107950000D03*
X105410000Y-89535000D03*
X107950000Y-89535000D03*
X78105000Y-103505000D03*
X69850000Y-96520000D03*
X81280000Y-60960000D03*
X121285000Y-69215000D03*
D34*
X156845000Y-57785000D03*
D33*
X89408000Y-60960000D03*
D35*
X52705000Y-105530000D02*
X54490000Y-107315000D01*
X62230000Y-106045000D02*
X65405000Y-102870000D01*
X54490000Y-107315000D02*
X60960000Y-107315000D01*
X60960000Y-107315000D02*
X62230000Y-106045000D01*
X105410000Y-70220802D02*
X105410000Y-68580000D01*
X105410000Y-68580000D02*
X108585000Y-65405000D01*
X68580000Y-33020000D02*
X67310000Y-33020000D01*
X62865000Y-36830000D02*
X62865000Y-40640000D01*
X64685999Y-35644001D02*
X64050999Y-35644001D01*
X67310000Y-33020000D02*
X64685999Y-35644001D01*
X64050999Y-35644001D02*
X62865000Y-36830000D01*
X42280802Y-75565000D02*
X46725802Y-80010000D01*
X41275000Y-75565000D02*
X42280802Y-75565000D01*
X46725802Y-80010000D02*
X50800000Y-80010000D01*
X59613790Y-82473790D02*
X59613790Y-90093790D01*
X56515000Y-79375000D02*
X59613790Y-82473790D01*
X59613790Y-90093790D02*
X61595000Y-92075000D01*
X61595000Y-92075000D02*
X65405000Y-92075000D01*
X55245000Y-79375000D02*
X56515000Y-79375000D01*
X65405000Y-92075000D02*
X69850000Y-96520000D01*
X97155000Y-101600000D02*
X93980000Y-101600000D01*
X90805000Y-107950000D02*
X93345000Y-105410000D01*
X62230000Y-83820000D02*
X62230000Y-86995000D01*
X57785000Y-77470000D02*
X59690000Y-79375000D01*
X59690000Y-79375000D02*
X63500000Y-79375000D01*
X63500000Y-79375000D02*
X64135000Y-80010000D01*
X55880000Y-77470000D02*
X57785000Y-77470000D01*
X64135000Y-80010000D02*
X64135000Y-81915000D01*
X64135000Y-81915000D02*
X62230000Y-83820000D01*
X52705000Y-109855000D02*
X65405000Y-109855000D01*
X73025000Y-102110658D02*
X71244342Y-100330000D01*
X76200000Y-39370000D02*
X76200000Y-43180000D01*
X102870000Y-40005000D02*
X100965000Y-38100000D01*
X102870000Y-43180000D02*
X106045000Y-43180000D01*
X98425000Y-48895000D02*
X98425000Y-48260000D01*
X98425000Y-48260000D02*
X97790000Y-47625000D01*
X97790000Y-47625000D02*
X97790000Y-45720000D01*
X97790000Y-45720000D02*
X100330000Y-43180000D01*
X100330000Y-43180000D02*
X102870000Y-43180000D01*
X98425000Y-50165000D02*
X98425000Y-48895000D01*
X77470000Y-102235000D02*
X76212799Y-103492201D01*
X62230000Y-86995000D02*
X66675000Y-86995000D01*
X138430000Y-111125000D02*
X138430000Y-118745000D01*
X138430000Y-118745000D02*
X135255000Y-121920000D01*
X66675000Y-86995000D02*
X71120000Y-91440000D01*
X106045000Y-43180000D02*
X106045000Y-41910000D01*
X113665000Y-41275000D02*
X115570000Y-43180000D01*
X106680000Y-41275000D02*
X113665000Y-41275000D01*
X115570000Y-43180000D02*
X115570000Y-46355000D01*
X106045000Y-41910000D02*
X106680000Y-41275000D01*
X100330000Y-95885000D02*
X100965000Y-95250000D01*
X92075000Y-103505000D02*
X93980000Y-101600000D01*
X100330000Y-65405000D02*
X100330000Y-53975000D01*
X98425000Y-50800000D02*
X98425000Y-51435000D01*
X98425000Y-51435000D02*
X100330000Y-53340000D01*
X100330000Y-53340000D02*
X100330000Y-53975000D01*
X98425000Y-50165000D02*
X98425000Y-50800000D01*
X46990000Y-113030000D02*
X48260000Y-113030000D01*
X74406543Y-103492201D02*
X73025000Y-102110658D01*
X71120000Y-91440000D02*
X73660000Y-91440000D01*
X121920000Y-123825000D02*
X121920000Y-121920000D01*
X133350000Y-123825000D02*
X121920000Y-123825000D01*
X135255000Y-121920000D02*
X133350000Y-123825000D01*
X102870000Y-107315000D02*
X104140000Y-106045000D01*
X102870000Y-108585000D02*
X102870000Y-107315000D01*
X97790000Y-120650000D02*
X97790000Y-111125000D01*
X97790000Y-111125000D02*
X99060000Y-109855000D01*
X101600000Y-109855000D02*
X102870000Y-108585000D01*
X99060000Y-109855000D02*
X101600000Y-109855000D01*
X100965000Y-123825000D02*
X97790000Y-120650000D01*
X121920000Y-123825000D02*
X100965000Y-123825000D01*
X100965000Y-38100000D02*
X77470000Y-38100000D01*
X77470000Y-38100000D02*
X76200000Y-39370000D01*
X121920000Y-119380000D02*
X121920000Y-121920000D01*
X91440000Y-103505000D02*
X92075000Y-103505000D01*
X100965000Y-95250000D02*
X103190605Y-95250000D01*
X103190605Y-95250000D02*
X104775000Y-95250000D01*
X104775000Y-95250000D02*
X105410000Y-94615000D01*
X105410000Y-94615000D02*
X106680000Y-94615000D01*
X100330000Y-98425000D02*
X100330000Y-96520000D01*
X97155000Y-101600000D02*
X100330000Y-98425000D01*
X100330000Y-96520000D02*
X100330000Y-95885000D01*
X36830000Y-111125000D02*
X33020000Y-107315000D01*
X33020000Y-107315000D02*
X33020000Y-101600000D01*
X111760000Y-93980000D02*
X113030000Y-92710000D01*
X111125000Y-93980000D02*
X111760000Y-93980000D01*
X113030000Y-92710000D02*
X113665000Y-92710000D01*
X105410000Y-81280000D02*
X106680000Y-82550000D01*
X106680000Y-92075000D02*
X106680000Y-82550000D01*
X105410000Y-81280000D02*
X101600000Y-81280000D01*
X113665000Y-92710000D02*
X116840000Y-92710000D01*
X113665000Y-100965000D02*
X113665000Y-92710000D01*
X108585000Y-93980000D02*
X106680000Y-92075000D01*
X111125000Y-93980000D02*
X108585000Y-93980000D01*
X120015000Y-82550000D02*
X118110000Y-82550000D01*
X118110000Y-73660000D02*
X116840000Y-72390000D01*
X113665000Y-72390000D02*
X116840000Y-72390000D01*
X116205000Y-77470000D02*
X118110000Y-77470000D01*
X118110000Y-82550000D02*
X118110000Y-77470000D01*
X118110000Y-77470000D02*
X118110000Y-73660000D01*
X101600000Y-81280000D02*
X98425000Y-81280000D01*
X98425000Y-81280000D02*
X97790000Y-80645000D01*
X93980000Y-78105000D02*
X97790000Y-78105000D01*
X97790000Y-80645000D02*
X97790000Y-78105000D01*
X101600000Y-66675000D02*
X101600000Y-70485000D01*
X100330000Y-65405000D02*
X101600000Y-66675000D01*
X116840000Y-72390000D02*
X116840000Y-68580000D01*
X118110000Y-67310000D02*
X117475000Y-67945000D01*
X116840000Y-68580000D02*
X117475000Y-67945000D01*
X126365000Y-62230000D02*
X126365000Y-67310000D01*
X130175000Y-67310000D02*
X126365000Y-67310000D01*
X126365000Y-67310000D02*
X118110000Y-67310000D01*
X82550000Y-104775000D02*
X80010000Y-102235000D01*
X82550000Y-105410000D02*
X82550000Y-104775000D01*
X90170000Y-103505000D02*
X91440000Y-103505000D01*
X88265000Y-105410000D02*
X90170000Y-103505000D01*
X82550000Y-105410000D02*
X88265000Y-105410000D01*
X106680000Y-94615000D02*
X106680000Y-92075000D01*
X121285000Y-92710000D02*
X123190000Y-90805000D01*
X116840000Y-90805000D02*
X116840000Y-92710000D01*
X116840000Y-92710000D02*
X121285000Y-92710000D01*
X116840000Y-83820000D02*
X116840000Y-90805000D01*
X118110000Y-82550000D02*
X116840000Y-83820000D01*
X102870000Y-40005000D02*
X102870000Y-43180000D01*
X74930000Y-99695000D02*
X77470000Y-102235000D01*
X97155000Y-70485000D02*
X99060000Y-70485000D01*
X95885000Y-71755000D02*
X97155000Y-70485000D01*
X99060000Y-70485000D02*
X101600000Y-70485000D01*
X95885000Y-74930000D02*
X95885000Y-71755000D01*
X97790000Y-78105000D02*
X97790000Y-76835000D01*
X97790000Y-76835000D02*
X95885000Y-74930000D01*
X48260000Y-113030000D02*
X49530000Y-113030000D01*
X68580000Y-100330000D02*
X67310000Y-101600000D01*
X65405000Y-109855000D02*
X67310000Y-107950000D01*
X74930000Y-92710000D02*
X74930000Y-98425000D01*
X74930000Y-98425000D02*
X74930000Y-99695000D01*
X73660000Y-91440000D02*
X74930000Y-92710000D01*
X67310000Y-107950000D02*
X67310000Y-101600000D01*
X77470000Y-102235000D02*
X80010000Y-102235000D01*
X49530000Y-113030000D02*
X52705000Y-109855000D01*
X71244342Y-100330000D02*
X68580000Y-100330000D01*
X45085000Y-111125000D02*
X46990000Y-113030000D01*
X36830000Y-111125000D02*
X45085000Y-111125000D01*
X76212799Y-103492201D02*
X74406543Y-103492201D01*
X62230000Y-90170000D02*
X66675000Y-90170000D01*
X66675000Y-90170000D02*
X69850000Y-93345000D01*
X69850000Y-93345000D02*
X72390000Y-93345000D01*
X72390000Y-99695000D02*
X73660000Y-98425000D01*
X73660000Y-98425000D02*
X73660000Y-94615000D01*
X73660000Y-94615000D02*
X72390000Y-93345000D01*
X72390000Y-99695000D02*
X72470000Y-99695000D01*
X72470000Y-99695000D02*
X75010000Y-102235000D01*
X72390000Y-86995000D02*
X73660000Y-86995000D01*
X73660000Y-86995000D02*
X75565000Y-88900000D01*
X75565000Y-88900000D02*
X76200000Y-88900000D01*
X72390000Y-90170000D02*
X74930000Y-90170000D01*
X74930000Y-90170000D02*
X76200000Y-91440000D01*
X76200000Y-91440000D02*
X76200000Y-93980000D01*
X72390000Y-83820000D02*
X73660000Y-83820000D01*
X73660000Y-83820000D02*
X74930000Y-85090000D01*
X74930000Y-85090000D02*
X76200000Y-85090000D01*
X72390000Y-80645000D02*
X73660000Y-80645000D01*
X73660000Y-80645000D02*
X74295000Y-80010000D01*
X74295000Y-80010000D02*
X76200000Y-80010000D01*
X73025000Y-76835000D02*
X74295000Y-78105000D01*
X76835000Y-78105000D02*
X81280000Y-82550000D01*
X74295000Y-78105000D02*
X76835000Y-78105000D01*
X73025000Y-73660000D02*
X73025000Y-76835000D01*
X158115000Y-49530000D02*
X160020000Y-47625000D01*
X156845000Y-57785000D02*
X156845000Y-50800000D01*
X156845000Y-50800000D02*
X158115000Y-49530000D01*
X154940000Y-45720000D02*
X154940000Y-47625000D01*
X154940000Y-47625000D02*
X153670000Y-48895000D01*
X154940000Y-40640000D02*
X154940000Y-45720000D01*
X153670000Y-48895000D02*
X153670000Y-62230000D01*
X97870000Y-40005000D02*
X88900000Y-40005000D01*
X88900000Y-40005000D02*
X85725000Y-43180000D01*
X82550000Y-43180000D02*
X85725000Y-43180000D01*
X67945000Y-70485000D02*
X63500000Y-70485000D01*
X67945000Y-70485000D02*
X67945000Y-64770000D01*
X67945000Y-64770000D02*
X66040000Y-62865000D01*
X69850000Y-70485000D02*
X67945000Y-70485000D01*
X66040000Y-62865000D02*
X64135000Y-62865000D01*
X71755000Y-68580000D02*
X69850000Y-70485000D01*
X61595000Y-72390000D02*
X61595000Y-77470000D01*
X63500000Y-70485000D02*
X61595000Y-72390000D01*
X65405000Y-77470000D02*
X65405000Y-74930000D01*
X65405000Y-74930000D02*
X66675000Y-73660000D01*
X66675000Y-73660000D02*
X71755000Y-73660000D01*
X52070000Y-69215000D02*
X53340000Y-69215000D01*
X53975000Y-80955000D02*
X53975000Y-80010000D01*
X53340000Y-69215000D02*
X59690000Y-69215000D01*
X53975000Y-80010000D02*
X53340000Y-79375000D01*
X53340000Y-79375000D02*
X53340000Y-69215000D01*
X65405000Y-67310000D02*
X61595000Y-67310000D01*
X50165000Y-67310000D02*
X52070000Y-69215000D01*
X59690000Y-69215000D02*
X61595000Y-67310000D01*
X46990000Y-67310000D02*
X50165000Y-67310000D01*
X50165000Y-77470000D02*
X50165000Y-74930000D01*
X50165000Y-74930000D02*
X45720000Y-70485000D01*
X45720000Y-70485000D02*
X40640000Y-70485000D01*
X46990000Y-77470000D02*
X46990000Y-76200000D01*
X45085000Y-74295000D02*
X41275000Y-74295000D01*
X46990000Y-76200000D02*
X45085000Y-74295000D01*
X40005000Y-51435000D02*
X40005000Y-52070000D01*
X40005000Y-52070000D02*
X41275000Y-53340000D01*
X41275000Y-53340000D02*
X43815000Y-53340000D01*
X47625000Y-51435000D02*
X47625000Y-52070000D01*
X47625000Y-52070000D02*
X48895000Y-53340000D01*
X48895000Y-53340000D02*
X51435000Y-53340000D01*
X55245000Y-51435000D02*
X57150000Y-51435000D01*
X57150000Y-51435000D02*
X59055000Y-53340000D01*
X66675000Y-51435000D02*
X64770000Y-51435000D01*
X64770000Y-51435000D02*
X62865000Y-53340000D01*
X64135000Y-57785000D02*
X60960000Y-57785000D01*
X59055000Y-55880000D02*
X59055000Y-53340000D01*
X60960000Y-57785000D02*
X59055000Y-55880000D01*
X53340000Y-57785000D02*
X53340000Y-56515000D01*
X51435000Y-54610000D02*
X51435000Y-53340000D01*
X53340000Y-56515000D02*
X51435000Y-54610000D01*
X42545000Y-57785000D02*
X42545000Y-56515000D01*
X42545000Y-56515000D02*
X43815000Y-55245000D01*
X43815000Y-55245000D02*
X43815000Y-53340000D01*
X47625000Y-44450000D02*
X55245000Y-44450000D01*
X41910000Y-44450000D02*
X47625000Y-44450000D01*
X47625000Y-38735000D02*
X47625000Y-44450000D01*
X55245000Y-44450000D02*
X62865000Y-44450000D01*
X55245000Y-38735000D02*
X55245000Y-44450000D01*
X62865000Y-44450000D02*
X66675000Y-44450000D01*
X66675000Y-38735000D02*
X66675000Y-44450000D01*
X71755000Y-40005000D02*
X71755000Y-38100000D01*
X71755000Y-38100000D02*
X74930000Y-34925000D01*
X74930000Y-34925000D02*
X74930000Y-33020000D01*
X40005000Y-42545000D02*
X41910000Y-44450000D01*
X40005000Y-38735000D02*
X40005000Y-42545000D01*
X63500000Y-33020000D02*
X59055000Y-37465000D01*
X59055000Y-37465000D02*
X59055000Y-40640000D01*
X51435000Y-40640000D02*
X51435000Y-36195000D01*
X51435000Y-36195000D02*
X50800000Y-35560000D01*
X50800000Y-35560000D02*
X50800000Y-33020000D01*
X43815000Y-40640000D02*
X43815000Y-36195000D01*
X43815000Y-36195000D02*
X45720000Y-34290000D01*
X45720000Y-34290000D02*
X45720000Y-33020000D01*
X115570000Y-95250000D02*
X116840000Y-93980000D01*
X116840000Y-93980000D02*
X122555000Y-93980000D01*
X122555000Y-93980000D02*
X124460000Y-92075000D01*
X40640000Y-85090000D02*
X39370000Y-86360000D01*
X39370000Y-86360000D02*
X39370000Y-92710000D01*
X40640000Y-80010000D02*
X40640000Y-85090000D01*
X39370000Y-92710000D02*
X40005000Y-93345000D01*
X40005000Y-93345000D02*
X41275000Y-93345000D01*
X38735000Y-77470000D02*
X39370000Y-78105000D01*
X38735000Y-69215000D02*
X38735000Y-76835000D01*
X38735000Y-76835000D02*
X38735000Y-77470000D01*
X39370000Y-78105000D02*
X43815000Y-78105000D01*
X46990000Y-81280000D02*
X46990000Y-85170000D01*
X43815000Y-78105000D02*
X46990000Y-81280000D01*
X40005000Y-67945000D02*
X38735000Y-69215000D01*
X40640000Y-67945000D02*
X40005000Y-67945000D01*
X46990000Y-90170000D02*
X43815000Y-90170000D01*
X41275000Y-95885000D02*
X41275000Y-99695000D01*
X41275000Y-99695000D02*
X41910000Y-100330000D01*
X41910000Y-100330000D02*
X41910000Y-102870000D01*
X41275000Y-94615000D02*
X46355000Y-94615000D01*
X40640000Y-69215000D02*
X46355000Y-69215000D01*
X46355000Y-69215000D02*
X52070000Y-74930000D01*
X52070000Y-74930000D02*
X52070000Y-75070018D01*
X52070000Y-81280000D02*
X52070000Y-75070018D01*
X56515000Y-83820000D02*
X55245000Y-82550000D01*
X55245000Y-82550000D02*
X53340000Y-82550000D01*
X53340000Y-82550000D02*
X52070000Y-81280000D01*
X101600000Y-78105000D02*
X104695000Y-78105000D01*
X104695000Y-78105000D02*
X104775000Y-78185000D01*
X109855000Y-78720000D02*
X116185000Y-78720000D01*
X116205000Y-80010000D02*
X107950000Y-80010000D01*
X109220000Y-71755000D02*
X106680000Y-74295000D01*
X106680000Y-74295000D02*
X106680000Y-80645000D01*
X109855000Y-77470000D02*
X109855000Y-78720000D01*
X99060000Y-97155000D02*
X99060000Y-93345000D01*
X99060000Y-93345000D02*
X97790000Y-92075000D01*
X97790000Y-92075000D02*
X96520000Y-92075000D01*
X99695000Y-102870000D02*
X100330000Y-102870000D01*
X100330000Y-107315000D02*
X99060000Y-107315000D01*
X99060000Y-107315000D02*
X98425000Y-106680000D01*
X98425000Y-106680000D02*
X98425000Y-104140000D01*
X98425000Y-104140000D02*
X99695000Y-102870000D01*
X100965000Y-101600000D02*
X99060000Y-101600000D01*
X99060000Y-101600000D02*
X97790000Y-102870000D01*
X97790000Y-102870000D02*
X95250000Y-102870000D01*
X93980000Y-109450000D02*
X95020000Y-109450000D01*
X95020000Y-109450000D02*
X95250000Y-109220000D01*
X95250000Y-109220000D02*
X95250000Y-102870000D01*
X95250000Y-100330000D02*
X90805000Y-100330000D01*
X104695000Y-101600000D02*
X106680000Y-99615000D01*
X100965000Y-101600000D02*
X104695000Y-101600000D01*
X82550000Y-107950000D02*
X90805000Y-107950000D01*
X112395000Y-43180000D02*
X112395000Y-45593000D01*
X111252000Y-45720000D02*
X111760000Y-46228000D01*
X112395000Y-45593000D02*
X111760000Y-46228000D01*
X102870000Y-45720000D02*
X111252000Y-45720000D01*
X113665000Y-54610000D02*
X111760000Y-54610000D01*
X114300000Y-53975000D02*
X113665000Y-54610000D01*
X100965000Y-46990000D02*
X110998000Y-46990000D01*
X110490000Y-55880000D02*
X110490000Y-59055000D01*
X114300000Y-50292000D02*
X114300000Y-53975000D01*
X111760000Y-54610000D02*
X110490000Y-55880000D01*
X110998000Y-46990000D02*
X114300000Y-50292000D01*
X110490000Y-59055000D02*
X111760000Y-60325000D01*
X111760000Y-60325000D02*
X118110000Y-60325000D01*
X118110000Y-60325000D02*
X120015000Y-62230000D01*
X76200000Y-53340000D02*
X78740000Y-55880000D01*
X78740000Y-55880000D02*
X78740000Y-59055000D01*
X99695000Y-50165000D02*
X99695000Y-46990000D01*
X106045000Y-53340000D02*
X102235000Y-53340000D01*
X99695000Y-46990000D02*
X99060000Y-46355000D01*
X97155000Y-69215000D02*
X97155000Y-66675000D01*
X97155000Y-73660000D02*
X97155000Y-73025000D01*
X96520000Y-66040000D02*
X96520000Y-64770000D01*
X96520000Y-64770000D02*
X99060000Y-62230000D01*
X97155000Y-66675000D02*
X96520000Y-66040000D01*
X99060000Y-75565000D02*
X97155000Y-73660000D01*
X101600000Y-75565000D02*
X99060000Y-75565000D01*
X92075000Y-43180000D02*
X92075000Y-47625000D01*
X92710000Y-48260000D02*
X95250000Y-48260000D01*
X92075000Y-47625000D02*
X92710000Y-48260000D01*
X106045000Y-53340000D02*
X109220000Y-53340000D01*
X112395000Y-53340000D02*
X109220000Y-53340000D01*
X79375000Y-43180000D02*
X82550000Y-43180000D01*
X92075000Y-53340000D02*
X92075000Y-57150000D01*
X85725000Y-53340000D02*
X88900000Y-53340000D01*
X112395000Y-58420000D02*
X113030000Y-59055000D01*
X120015000Y-59055000D02*
X123190000Y-62230000D01*
X113030000Y-59055000D02*
X120015000Y-59055000D01*
X132715000Y-88900000D02*
X137160000Y-88900000D01*
X152400000Y-101600000D02*
X152400000Y-107950000D01*
X109220000Y-70485000D02*
X107859999Y-70485000D01*
X109220000Y-66675000D02*
X110490000Y-66675000D01*
X111125000Y-64770000D02*
X110490000Y-64135000D01*
X107315000Y-68580000D02*
X109220000Y-66675000D01*
X107315000Y-69940001D02*
X107315000Y-68580000D01*
X107859999Y-70485000D02*
X107315000Y-69940001D01*
X110490000Y-66675000D02*
X111125000Y-66040000D01*
X110490000Y-64135000D02*
X109220000Y-64135000D01*
X111125000Y-66040000D02*
X111125000Y-64770000D01*
X74930000Y-33020000D02*
X80010000Y-33020000D01*
X106680000Y-80645000D02*
X111760000Y-85725000D01*
X111760000Y-89535000D02*
X110490000Y-90805000D01*
X111760000Y-85725000D02*
X111760000Y-89535000D01*
X160020000Y-40640000D02*
X160020000Y-33020000D01*
X154940000Y-33020000D02*
X154940000Y-40640000D01*
X149860000Y-40640000D02*
X149860000Y-33020000D01*
X144780000Y-33020000D02*
X144780000Y-40640000D01*
X162560000Y-73660000D02*
X163830000Y-74930000D01*
X163830000Y-74930000D02*
X163830000Y-87630000D01*
X163830000Y-87630000D02*
X162560000Y-88900000D01*
X144780000Y-40640000D02*
X137795000Y-47625000D01*
X139065000Y-65405000D02*
X144780000Y-65405000D01*
X137795000Y-64135000D02*
X139065000Y-65405000D01*
X144780000Y-65405000D02*
X146050000Y-66675000D01*
X137795000Y-47625000D02*
X137795000Y-64135000D01*
X146050000Y-74930000D02*
X147320000Y-76200000D01*
X146050000Y-66675000D02*
X146050000Y-74930000D01*
X140970000Y-61920000D02*
X143185000Y-61920000D01*
X147320000Y-62230000D02*
X143495000Y-62230000D01*
X143495000Y-62230000D02*
X143185000Y-61920000D01*
X140970000Y-53030000D02*
X140970000Y-58420000D01*
X147320000Y-52070000D02*
X147320000Y-48895000D01*
X147320000Y-48895000D02*
X149860000Y-46355000D01*
X149860000Y-46355000D02*
X149860000Y-40640000D01*
X147320000Y-52070000D02*
X145415000Y-52070000D01*
X142875000Y-49530000D02*
X140970000Y-49530000D01*
X145415000Y-52070000D02*
X142875000Y-49530000D01*
X151130000Y-58420000D02*
X151130000Y-53975000D01*
X151130000Y-53975000D02*
X149225000Y-52070000D01*
X149225000Y-52070000D02*
X147320000Y-52070000D01*
X153670000Y-62230000D02*
X147320000Y-62230000D01*
X155575000Y-62230000D02*
X153670000Y-62230000D01*
X155575000Y-79375000D02*
X155575000Y-65405000D01*
X157480000Y-81280000D02*
X155575000Y-79375000D01*
X160020000Y-47625000D02*
X160020000Y-40640000D01*
X162560000Y-73660000D02*
X162560000Y-69215000D01*
X162560000Y-69215000D02*
X155575000Y-62230000D01*
X160020000Y-78740000D02*
X160020000Y-77470000D01*
X158750000Y-76200000D02*
X158750000Y-71120000D01*
X160020000Y-77470000D02*
X158750000Y-76200000D01*
X148590000Y-92075000D02*
X151130000Y-94615000D01*
X144780000Y-92710000D02*
X145415000Y-92075000D01*
X151130000Y-94615000D02*
X161290000Y-94615000D01*
X145415000Y-92075000D02*
X148590000Y-92075000D01*
X161290000Y-94615000D02*
X162560000Y-93345000D01*
X162560000Y-93345000D02*
X162560000Y-88900000D01*
X170180000Y-101600000D02*
X162560000Y-101600000D01*
X162560000Y-101600000D02*
X157480000Y-101600000D01*
X152400000Y-101600000D02*
X157480000Y-101600000D01*
X144780000Y-101600000D02*
X152400000Y-101600000D01*
X144780000Y-101600000D02*
X144780000Y-98425000D01*
X137160000Y-101600000D02*
X144780000Y-101600000D01*
X142875000Y-95250000D02*
X141605000Y-93980000D01*
X141605000Y-93980000D02*
X141605000Y-91440000D01*
X147320000Y-95250000D02*
X142875000Y-95250000D01*
X141605000Y-91440000D02*
X144145000Y-88900000D01*
X144145000Y-88900000D02*
X147320000Y-88900000D01*
X148042001Y-84367999D02*
X152400000Y-88725998D01*
X151130000Y-71120000D02*
X151130000Y-81280000D01*
X151130000Y-81280000D02*
X148042001Y-84367999D01*
X144954002Y-81280000D02*
X148042001Y-84367999D01*
X142240000Y-81280000D02*
X144954002Y-81280000D01*
X152400000Y-88725998D02*
X152400000Y-88900000D01*
X139700000Y-83820000D02*
X139700000Y-86360000D01*
X139700000Y-86360000D02*
X137160000Y-88900000D01*
X142240000Y-69850000D02*
X142240000Y-74295000D01*
X142240000Y-74295000D02*
X137160000Y-79375000D01*
X137160000Y-79375000D02*
X137160000Y-81280000D01*
X139065000Y-69215000D02*
X138430000Y-68580000D01*
X139065000Y-71755000D02*
X139065000Y-69215000D01*
X139700000Y-72390000D02*
X139065000Y-71755000D01*
X138430000Y-68580000D02*
X135890000Y-68580000D01*
X135890000Y-68580000D02*
X134620000Y-69850000D01*
X134620000Y-69850000D02*
X130175000Y-69850000D01*
X130175000Y-79375000D02*
X133350000Y-79375000D01*
X133350000Y-79375000D02*
X137160000Y-75565000D01*
X137160000Y-75565000D02*
X137160000Y-69850000D01*
X130175000Y-68580000D02*
X127635000Y-68580000D01*
X127635000Y-68580000D02*
X126365000Y-69850000D01*
X126365000Y-69850000D02*
X126365000Y-72390000D01*
X130175000Y-76200000D02*
X130175000Y-69850000D01*
X130175000Y-79375000D02*
X130175000Y-82550000D01*
X126365000Y-86360000D02*
X126365000Y-78105000D01*
X126365000Y-78105000D02*
X128270000Y-76200000D01*
X128270000Y-76200000D02*
X130175000Y-76200000D01*
X62230000Y-102870000D02*
X59055000Y-102870000D01*
X57785000Y-104140000D02*
X57785000Y-105530000D01*
X59055000Y-102870000D02*
X57785000Y-104140000D01*
X79375000Y-109220000D02*
X76835000Y-106680000D01*
X79375000Y-110490000D02*
X79375000Y-109220000D01*
X76835000Y-106680000D02*
X76835000Y-106045000D01*
X76200000Y-105410000D02*
X74930000Y-105410000D01*
X76835000Y-106045000D02*
X76200000Y-105410000D01*
X102870000Y-64770000D02*
X102870000Y-68580000D01*
X102870000Y-68580000D02*
X103439990Y-69149990D01*
X103439990Y-69149990D02*
X103439990Y-71185010D01*
X102870000Y-71755000D02*
X99060000Y-71755000D01*
X103439990Y-71185010D02*
X102870000Y-71755000D01*
X104775000Y-60325000D02*
X102870000Y-62230000D01*
X104775000Y-58420000D02*
X104775000Y-60325000D01*
X102870000Y-62230000D02*
X102870000Y-64770000D01*
X102235000Y-55880000D02*
X104140000Y-55880000D01*
X104775000Y-56515000D02*
X104775000Y-58420000D01*
X104140000Y-55880000D02*
X104775000Y-56515000D01*
X112395000Y-55880000D02*
X112395000Y-58420000D01*
X109220000Y-62865000D02*
X111125000Y-62865000D01*
X111125000Y-62865000D02*
X111760000Y-62230000D01*
X111760000Y-62230000D02*
X113665000Y-62230000D01*
X109220000Y-65405000D02*
X108585000Y-65405000D01*
X108585000Y-65405000D02*
X105410000Y-62230000D01*
X109220000Y-70485000D02*
X109220000Y-71755000D01*
X109220000Y-69215000D02*
X113665000Y-69215000D01*
X113665000Y-69215000D02*
X116840000Y-66040000D01*
X116840000Y-66040000D02*
X116840000Y-62230000D01*
X123190000Y-72390000D02*
X126365000Y-72390000D01*
X116185000Y-78720000D02*
X116205000Y-78740000D01*
X126365000Y-90805000D02*
X126365000Y-86360000D01*
X120015000Y-109855000D02*
X121920000Y-109855000D01*
X121920000Y-109855000D02*
X124460000Y-109855000D01*
X121920000Y-113665000D02*
X121920000Y-109855000D01*
X126365000Y-100965000D02*
X126365000Y-116840000D01*
X123190000Y-100965000D02*
X126365000Y-100965000D01*
X122555000Y-103505000D02*
X121285000Y-102235000D01*
X121285000Y-100330000D02*
X116840000Y-95885000D01*
X124460000Y-109855000D02*
X125095000Y-109220000D01*
X121285000Y-102235000D02*
X121285000Y-100330000D01*
X125095000Y-109220000D02*
X125095000Y-104594998D01*
X125095000Y-104594998D02*
X124005002Y-103505000D01*
X124005002Y-103505000D02*
X122555000Y-103505000D01*
X116840000Y-100965000D02*
X120015000Y-100965000D01*
X123825000Y-105410000D02*
X120650000Y-105410000D01*
X120015000Y-104775000D02*
X120015000Y-100965000D01*
X120650000Y-105410000D02*
X120015000Y-104775000D01*
X116840000Y-111125000D02*
X118110000Y-111125000D01*
X118110000Y-108585000D02*
X118110000Y-111125000D01*
X123825000Y-107950000D02*
X118745000Y-107950000D01*
X118110000Y-111125000D02*
X120015000Y-111125000D01*
X118745000Y-107950000D02*
X118110000Y-108585000D01*
X123825000Y-106680000D02*
X120015000Y-106680000D01*
X120015000Y-106680000D02*
X119380000Y-106045000D01*
X119380000Y-106045000D02*
X114300000Y-106045000D01*
X114300000Y-106045000D02*
X114300000Y-109220000D01*
X114300000Y-112395000D02*
X115570000Y-112395000D01*
X115570000Y-112395000D02*
X116840000Y-111125000D01*
X105410000Y-111125000D02*
X102235000Y-111125000D01*
X114300000Y-109220000D02*
X107315000Y-109220000D01*
X101600000Y-111760000D02*
X100330000Y-111760000D01*
X107315000Y-109220000D02*
X105410000Y-111125000D01*
X102235000Y-111125000D02*
X101600000Y-111760000D01*
X110490000Y-100965000D02*
X110490000Y-107950000D01*
X111405038Y-92710000D02*
X109855000Y-92710000D01*
X113665000Y-90805000D02*
X113310037Y-90805001D01*
X109855000Y-92710000D02*
X107950000Y-90805000D01*
X105410000Y-89535000D02*
X104140000Y-90805000D01*
X104140000Y-90805000D02*
X99060000Y-90805000D01*
X107950000Y-90805000D02*
X107950000Y-89535000D01*
X113310037Y-90805001D02*
X111405038Y-92710000D01*
X99060000Y-90805000D02*
X97155000Y-88900000D01*
X97155000Y-88900000D02*
X93980000Y-88900000D01*
X115570000Y-101600000D02*
X115570000Y-95250000D01*
X106680000Y-99615000D02*
X111680000Y-99615000D01*
X114300000Y-102870000D02*
X115570000Y-101600000D01*
X112395000Y-100330000D02*
X112395000Y-101600000D01*
X111680000Y-99615000D02*
X112395000Y-100330000D01*
X113665000Y-102870000D02*
X114300000Y-102870000D01*
X112395000Y-101600000D02*
X113665000Y-102870000D01*
X90805000Y-90170000D02*
X92075000Y-90170000D01*
X92075000Y-90170000D02*
X93980000Y-92075000D01*
X93980000Y-92075000D02*
X96520000Y-92075000D01*
X91440000Y-84455000D02*
X92075000Y-85090000D01*
X95885000Y-84455000D02*
X95885000Y-80374998D01*
X92075000Y-79375000D02*
X92075000Y-74930000D01*
X86995000Y-84455000D02*
X91440000Y-84455000D01*
X95885000Y-80374998D02*
X95520002Y-80010000D01*
X92075000Y-85090000D02*
X95250000Y-85090000D01*
X92710000Y-80010000D02*
X92075000Y-79375000D01*
X92075000Y-74930000D02*
X93980000Y-73025000D01*
X95250000Y-85090000D02*
X95885000Y-84455000D01*
X95520002Y-80010000D02*
X92710000Y-80010000D01*
X93980000Y-83820000D02*
X92075000Y-83820000D01*
X92075000Y-83820000D02*
X90805000Y-82550000D01*
X90805000Y-82550000D02*
X90805000Y-76200000D01*
X93980000Y-86360000D02*
X90805000Y-86360000D01*
X86995000Y-85725000D02*
X88900000Y-85725000D01*
X88900000Y-85725000D02*
X89535000Y-86360000D01*
X89535000Y-86360000D02*
X90805000Y-86360000D01*
X85725000Y-76200000D02*
X90805000Y-76200000D01*
X82550000Y-107950000D02*
X79375000Y-107950000D01*
X79375000Y-107950000D02*
X78105000Y-106680000D01*
X78105000Y-106680000D02*
X78105000Y-103505000D01*
X73660000Y-66675000D02*
X77470000Y-66675000D01*
X77470000Y-66675000D02*
X78105000Y-66675000D01*
X89535000Y-62865000D02*
X92075000Y-62865000D01*
X92075000Y-67865000D02*
X92075000Y-68580000D01*
X92075000Y-68580000D02*
X91440000Y-69215000D01*
X91440000Y-69215000D02*
X91440000Y-70485000D01*
X74295000Y-73660000D02*
X78105000Y-73660000D01*
X78105000Y-73660000D02*
X79375000Y-74930000D01*
X81280000Y-70485000D02*
X81280000Y-73660000D01*
X74295000Y-68580000D02*
X77470000Y-68580000D01*
X79375000Y-70485000D02*
X81280000Y-70485000D01*
X73025000Y-68580000D02*
X73025000Y-67310000D01*
X73025000Y-67310000D02*
X73660000Y-66675000D01*
X87630000Y-100330000D02*
X87630000Y-97790000D01*
X87630000Y-97790000D02*
X90805000Y-94615000D01*
X90805000Y-94615000D02*
X90805000Y-90170000D01*
X62230000Y-93345000D02*
X62230000Y-96520000D01*
X60960000Y-80645000D02*
X60325000Y-81280000D01*
X60325000Y-89535000D02*
X60960000Y-90170000D01*
X60325000Y-81280000D02*
X60325000Y-89535000D01*
X62230000Y-80645000D02*
X60960000Y-80645000D01*
X60960000Y-90170000D02*
X62230000Y-90170000D01*
X121939999Y-74314999D02*
X121285000Y-73660000D01*
X124460000Y-90170000D02*
X121939999Y-87649999D01*
X121285000Y-73660000D02*
X121285000Y-69215000D01*
X121939999Y-87649999D02*
X121939999Y-74314999D01*
X124460000Y-92075000D02*
X124460000Y-90170000D01*
X93115000Y-109450000D02*
X93980000Y-109450000D01*
X74930000Y-113030000D02*
X78740000Y-113030000D01*
X78740000Y-113030000D02*
X80010000Y-111760000D01*
X80010000Y-111760000D02*
X84455000Y-111760000D01*
X82550000Y-107950000D02*
X82550000Y-110490000D01*
X82550000Y-113030000D02*
X85725000Y-113030000D01*
X88900000Y-113030000D02*
X85725000Y-113030000D01*
X88900000Y-114935000D02*
X88265000Y-115570000D01*
X88265000Y-115570000D02*
X81280000Y-115570000D01*
X81280000Y-115570000D02*
X80010000Y-116840000D01*
X88900000Y-113030000D02*
X88900000Y-114935000D01*
X68580000Y-102870000D02*
X71675000Y-102870000D01*
X71675000Y-102870000D02*
X71755000Y-102950000D01*
X74930000Y-105410000D02*
X74215000Y-105410000D01*
X74215000Y-105410000D02*
X71755000Y-102950000D01*
X68580000Y-113030000D02*
X69850000Y-113030000D01*
X71755000Y-111125000D02*
X71755000Y-107950000D01*
X69850000Y-113030000D02*
X71755000Y-111125000D01*
X68580000Y-113030000D02*
X65405000Y-113030000D01*
X62230000Y-113030000D02*
X65405000Y-113030000D01*
X74930000Y-107950000D02*
X71755000Y-107950000D01*
X41910000Y-113030000D02*
X36195000Y-113030000D01*
X45085000Y-113030000D02*
X41910000Y-113030000D01*
X113842481Y-55880000D02*
X112395000Y-55880000D01*
X115316000Y-54406481D02*
X113842481Y-55880000D01*
X111760000Y-46228000D02*
X115316000Y-49784000D01*
X115316000Y-49784000D02*
X115316000Y-54406481D01*
X85090000Y-85090000D02*
X85725000Y-84455000D01*
X85725000Y-84455000D02*
X86995000Y-84455000D01*
X85090000Y-87630000D02*
X85090000Y-85090000D01*
X87630000Y-90170000D02*
X85090000Y-87630000D01*
X92710000Y-33020000D02*
X97790000Y-33020000D01*
X162560000Y-60960000D02*
X162560000Y-57150000D01*
X83185000Y-74295000D02*
X83185000Y-73025000D01*
X81915000Y-75565000D02*
X83185000Y-74295000D01*
X80010000Y-75565000D02*
X81915000Y-75565000D01*
X79375000Y-74930000D02*
X80010000Y-75565000D01*
X83185000Y-73025000D02*
X83185000Y-70485000D01*
X97155000Y-48895000D02*
X96520000Y-48260000D01*
X97155000Y-49530000D02*
X97155000Y-48895000D01*
X97155000Y-50165000D02*
X97155000Y-49530000D01*
X96520000Y-48260000D02*
X95250000Y-48260000D01*
X97155000Y-50165000D02*
X97155000Y-51435000D01*
X99060000Y-53975000D02*
X99060000Y-54610000D01*
X97155000Y-52070000D02*
X99060000Y-53975000D01*
X97155000Y-51435000D02*
X97155000Y-52070000D01*
X99060000Y-62230000D02*
X99060000Y-54610000D01*
X99695000Y-50800000D02*
X101282500Y-52387500D01*
X99695000Y-50165000D02*
X99695000Y-50800000D01*
X102235000Y-53340000D02*
X101282500Y-52387500D01*
X95250000Y-52245000D02*
X96750000Y-53745000D01*
X95250000Y-50800000D02*
X95250000Y-52245000D01*
X96750000Y-53745000D02*
X96750000Y-55245000D01*
X84455000Y-111760000D02*
X86995000Y-109220000D01*
X91035000Y-109450000D02*
X93115000Y-109450000D01*
X90805000Y-109220000D02*
X91035000Y-109450000D01*
X86995000Y-109220000D02*
X89535000Y-109220000D01*
X89535000Y-109220000D02*
X90805000Y-109220000D01*
X45085000Y-113030000D02*
X46990000Y-114935000D01*
X73025000Y-114935000D02*
X74930000Y-113030000D01*
X61595000Y-114935000D02*
X73025000Y-114935000D01*
X46990000Y-114935000D02*
X48895000Y-114935000D01*
X57785000Y-111125000D02*
X61595000Y-114935000D01*
X52705000Y-111125000D02*
X57785000Y-111125000D01*
X48895000Y-114935000D02*
X52705000Y-111125000D01*
X69215000Y-44450000D02*
X66675000Y-44450000D01*
X71755000Y-41910000D02*
X69215000Y-44450000D01*
X71755000Y-40005000D02*
X71755000Y-41910000D01*
X46990000Y-86360000D02*
X49530000Y-88900000D01*
X49530000Y-88900000D02*
X55880000Y-88900000D01*
X46990000Y-85170000D02*
X46990000Y-86360000D01*
X53340000Y-93980000D02*
X50800000Y-91440000D01*
X55880000Y-93980000D02*
X53340000Y-93980000D01*
X41910000Y-91440000D02*
X40640000Y-90170000D01*
X50800000Y-91440000D02*
X41910000Y-91440000D01*
X57150000Y-94615000D02*
X57150000Y-90170000D01*
X52705000Y-95250000D02*
X56515000Y-95250000D01*
X57150000Y-90170000D02*
X55880000Y-88900000D01*
X46355000Y-93345000D02*
X50800000Y-93345000D01*
X56515000Y-95250000D02*
X57150000Y-94615000D01*
X50800000Y-93345000D02*
X52705000Y-95250000D01*
X56515000Y-86995000D02*
X56515000Y-83820000D01*
X58354990Y-88834990D02*
X56515000Y-86995000D01*
X87630000Y-72898000D02*
X87630000Y-67310000D01*
X88392000Y-73660000D02*
X87630000Y-72898000D01*
X91440000Y-73660000D02*
X88392000Y-73660000D01*
X86106000Y-67310000D02*
X87630000Y-67310000D01*
X83566000Y-64770000D02*
X86106000Y-67310000D01*
X82550000Y-64770000D02*
X83566000Y-64770000D01*
X92075000Y-59309000D02*
X92075000Y-57150000D01*
X90424000Y-60960000D02*
X92075000Y-59309000D01*
X89408000Y-60960000D02*
X90424000Y-60960000D01*
X88646000Y-62230000D02*
X87630000Y-62230000D01*
X89281000Y-62865000D02*
X88646000Y-62230000D01*
X89535000Y-62865000D02*
X89281000Y-62865000D01*
X78105000Y-64135000D02*
X81280000Y-60960000D01*
X78105000Y-66675000D02*
X78105000Y-64135000D01*
X82804000Y-60452000D02*
X82296000Y-59944000D01*
X78359000Y-69469000D02*
X79756000Y-68072000D01*
X79756000Y-68072000D02*
X79756000Y-63500000D01*
X78359000Y-69469000D02*
X79375000Y-70485000D01*
X82296000Y-59944000D02*
X82296000Y-58928000D01*
X77470000Y-68580000D02*
X78359000Y-69469000D01*
X79756000Y-63500000D02*
X80772000Y-62484000D01*
X87630000Y-62230000D02*
X83566000Y-62230000D01*
X82106001Y-63689999D02*
X81598001Y-63689999D01*
X83566000Y-62230000D02*
X82106001Y-63689999D01*
X81598001Y-63689999D02*
X80772000Y-64516000D01*
X83185000Y-68961000D02*
X80772000Y-66548000D01*
X83185000Y-70485000D02*
X83185000Y-68961000D01*
X80772000Y-64516000D02*
X80772000Y-66548000D01*
X81788000Y-62484000D02*
X82804000Y-61468000D01*
X81280000Y-62484000D02*
X81788000Y-62484000D01*
X80772000Y-62484000D02*
X81280000Y-62484000D01*
X82804000Y-61468000D02*
X82804000Y-60452000D01*
X87630000Y-60706000D02*
X87630000Y-62230000D01*
X87376000Y-60452000D02*
X87630000Y-60706000D01*
X87376000Y-58928000D02*
X87376000Y-60452000D01*
X82296000Y-57658000D02*
X87376000Y-57658000D01*
X85598000Y-56388000D02*
X82550000Y-53340000D01*
X87376000Y-56388000D02*
X85598000Y-56388000D01*
X79375000Y-54991000D02*
X79375000Y-53340000D01*
X80772000Y-56388000D02*
X79375000Y-54991000D01*
X82296000Y-56388000D02*
X80772000Y-56388000D01*
X88900000Y-56896000D02*
X88900000Y-53340000D01*
X88138000Y-57658000D02*
X88900000Y-56896000D01*
X87376000Y-57658000D02*
X88138000Y-57658000D01*
X58354990Y-98109010D02*
X58354990Y-88834990D01*
X56388000Y-100076000D02*
X58354990Y-98109010D01*
X50800000Y-100076000D02*
X56388000Y-100076000D01*
X48260000Y-99568000D02*
X48260000Y-102870000D01*
X50292000Y-97536000D02*
X48260000Y-99568000D01*
X55880000Y-97536000D02*
X50292000Y-97536000D01*
X45085000Y-98425000D02*
X46355000Y-97155000D01*
X45085000Y-102870000D02*
X45085000Y-98425000D01*
X46355000Y-95885000D02*
X46355000Y-97155000D01*
X47244000Y-104140000D02*
X49276000Y-104140000D01*
X49276000Y-104140000D02*
X52324000Y-101092000D01*
X48260000Y-94996000D02*
X48260000Y-97536000D01*
X47879000Y-94615000D02*
X48260000Y-94996000D01*
X48260000Y-97536000D02*
X46736000Y-99060000D01*
X52324000Y-101092000D02*
X56896000Y-101092000D01*
X46355000Y-94615000D02*
X47879000Y-94615000D01*
X46736000Y-103632000D02*
X47244000Y-104140000D01*
X46736000Y-99060000D02*
X46736000Y-103632000D01*
X59436000Y-97028000D02*
X59436000Y-98552000D01*
X59944000Y-96520000D02*
X59436000Y-97028000D01*
X62230000Y-96520000D02*
X59944000Y-96520000D01*
X56896000Y-101092000D02*
X59436000Y-98552000D01*
X59817000Y-99695000D02*
X62230000Y-99695000D01*
X56896000Y-102616000D02*
X57912000Y-101600000D01*
X55880000Y-102616000D02*
X56896000Y-102616000D01*
X57912000Y-101600000D02*
X59817000Y-99695000D01*
X89535000Y-101600000D02*
X90805000Y-100330000D01*
X81280000Y-97155000D02*
X85725000Y-101600000D01*
X85725000Y-101600000D02*
X89535000Y-101600000D01*
X81280000Y-91440000D02*
X81280000Y-97155000D01*
X129540000Y-107315000D02*
X129540000Y-102870000D01*
X130810000Y-108585000D02*
X129540000Y-107315000D01*
X133350000Y-108585000D02*
X130810000Y-108585000D01*
X66040000Y-61595000D02*
X65405000Y-61595000D01*
X62865000Y-61595000D02*
X66040000Y-61595000D01*
X61595000Y-60325000D02*
X62865000Y-61595000D01*
X66040000Y-61595000D02*
X67310000Y-60325000D01*
X72390000Y-60325000D02*
X73660000Y-61595000D01*
X73660000Y-61595000D02*
X76200000Y-61595000D01*
X76200000Y-61595000D02*
X78740000Y-59055000D01*
X67310000Y-60325000D02*
X72390000Y-60325000D01*
X52070000Y-61595000D02*
X50800000Y-60325000D01*
X54610000Y-61595000D02*
X52070000Y-61595000D01*
X55880000Y-62865000D02*
X54610000Y-61595000D01*
X55880000Y-67310000D02*
X55880000Y-62865000D01*
X46355000Y-61595000D02*
X41275000Y-61595000D01*
X47625000Y-60325000D02*
X46355000Y-61595000D01*
X41275000Y-61595000D02*
X40005000Y-60325000D01*
X50800000Y-60325000D02*
X47625000Y-60325000D01*
X66675000Y-51435000D02*
X67945000Y-51435000D01*
X71755000Y-57785000D02*
X71120000Y-57150000D01*
X74930000Y-57785000D02*
X71755000Y-57785000D01*
X71120000Y-57150000D02*
X71120000Y-54610000D01*
X67945000Y-51435000D02*
X71120000Y-54610000D01*
X33020000Y-97790000D02*
X33020000Y-95250000D01*
X30480000Y-100330000D02*
X33020000Y-97790000D01*
X30480000Y-107315000D02*
X30480000Y-100330000D01*
X36195000Y-113030000D02*
X30480000Y-107315000D01*
X80010000Y-116840000D02*
X80010000Y-119380000D01*
X74930000Y-116840000D02*
X75565000Y-116205000D01*
X77470000Y-116205000D02*
X79375000Y-114300000D01*
X75565000Y-116205000D02*
X77470000Y-116205000D01*
X74930000Y-119380000D02*
X74930000Y-116840000D01*
X52705000Y-116205000D02*
X52705000Y-113030000D01*
X52070000Y-116840000D02*
X52705000Y-116205000D01*
X52070000Y-119380000D02*
X52070000Y-116840000D01*
X57785000Y-116205000D02*
X57785000Y-113030000D01*
X57150000Y-116840000D02*
X57785000Y-116205000D01*
X57150000Y-119380000D02*
X57150000Y-116840000D01*
X110490000Y-114935000D02*
X110490000Y-110490000D01*
X111760000Y-116205000D02*
X110490000Y-114935000D01*
X111760000Y-119380000D02*
X111760000Y-116205000D01*
X120015000Y-115570000D02*
X121920000Y-113665000D01*
X116840000Y-119380000D02*
X116840000Y-116205000D01*
X117475000Y-115570000D02*
X120015000Y-115570000D01*
X116840000Y-116205000D02*
X117475000Y-115570000D01*
X127000000Y-117475000D02*
X126365000Y-116840000D01*
X127000000Y-119380000D02*
X127000000Y-117475000D01*
X132080000Y-115570000D02*
X129540000Y-113030000D01*
X132080000Y-119380000D02*
X132080000Y-115570000D01*
X104007901Y-71622901D02*
X105410000Y-70220802D01*
X101600000Y-73025000D02*
X103505000Y-73025000D01*
X104007901Y-72522099D02*
X103505000Y-73025000D01*
X104007901Y-71887099D02*
X104007901Y-72522099D01*
X104007901Y-71887099D02*
X104007901Y-71622901D01*
M02*
