G04 #@! TF.GenerationSoftware,KiCad,Pcbnew,(5.99.0-1101-g9de7547c2)*
G04 #@! TF.CreationDate,2020-03-19T22:24:47-06:00*
G04 #@! TF.ProjectId,pcb-power,7063622d-706f-4776-9572-2e6b69636164,rev?*
G04 #@! TF.SameCoordinates,Original*
G04 #@! TF.FileFunction,Legend,Bot*
G04 #@! TF.FilePolarity,Positive*
%FSLAX46Y46*%
G04 Gerber Fmt 4.6, Leading zero omitted, Abs format (unit mm)*
G04 Created by KiCad (PCBNEW (5.99.0-1101-g9de7547c2)) date 2020-03-19 22:24:47*
%MOMM*%
%LPD*%
G01*
G04 APERTURE LIST*
%ADD10O,1.702000X1.702000*%
%ADD11C,1.702000*%
%ADD12C,1.362000*%
%ADD13C,2.302000*%
%ADD14R,1.702000X1.702000*%
%ADD15C,3.702000*%
%ADD16R,2.502000X1.702000*%
%ADD17O,2.502000X1.702000*%
%ADD18O,2.502000X2.502000*%
%ADD19C,2.502000*%
%ADD20C,1.002000*%
%ADD21C,8.702000*%
%ADD22O,2.102000X2.007000*%
%ADD23R,2.102000X2.007000*%
%ADD24C,2.902000*%
%ADD25C,2.102000*%
%ADD26C,1.702000*%
%ADD27C,6.102000*%
%ADD28O,2.302000X2.302000*%
%ADD29R,2.302000X2.302000*%
%ADD30R,3.302000X3.302000*%
%ADD31C,3.302000*%
%ADD32R,2.502000X2.502000*%
G04 APERTURE END LIST*
%LPC*%
D10*
X33020000Y-76835000D03*
D11*
X33020000Y-66675000D03*
D10*
X36195000Y-76835000D03*
D11*
X36195000Y-66675000D03*
D12*
X67056000Y-104648000D03*
X61976000Y-107188000D03*
X67056000Y-109728000D03*
D13*
X147320000Y-33020000D03*
X86360000Y-33020000D03*
X119380000Y-33020000D03*
X93980000Y-33020000D03*
X114300000Y-33020000D03*
X78740000Y-33020000D03*
X99060000Y-33020000D03*
X71120000Y-33020000D03*
X63500000Y-33020000D03*
X55880000Y-33020000D03*
X142240000Y-33020000D03*
X40640000Y-33020000D03*
X48260000Y-33020000D03*
X170180000Y-60960000D03*
X170180000Y-86360000D03*
X33020000Y-62230000D03*
X33020000Y-80010000D03*
D11*
X107950000Y-95250000D03*
X107950000Y-100250000D03*
X41275000Y-62825000D03*
D14*
X41275000Y-60325000D03*
D10*
X160655000Y-66040000D03*
D11*
X160655000Y-81280000D03*
D15*
X98320000Y-59690000D03*
X83820000Y-59690000D03*
D10*
X107950000Y-92075000D03*
D11*
X107950000Y-79375000D03*
D16*
X83820000Y-97790000D03*
D17*
X91440000Y-105410000D03*
X83820000Y-100330000D03*
X91440000Y-102870000D03*
X83820000Y-102870000D03*
X91440000Y-100330000D03*
X83820000Y-105410000D03*
X91440000Y-97790000D03*
D10*
X121920000Y-48260000D03*
D11*
X137160000Y-48260000D03*
D18*
X137160000Y-43180000D03*
D19*
X116840000Y-43180000D03*
D10*
X157480000Y-43180000D03*
D11*
X142240000Y-43180000D03*
D20*
X172460419Y-30739581D03*
X170180000Y-29795000D03*
X167899581Y-30739581D03*
X166955000Y-33020000D03*
X167899581Y-35300419D03*
X170180000Y-36245000D03*
X172460419Y-35300419D03*
X173405000Y-33020000D03*
D21*
X170180000Y-33020000D03*
D20*
X172460419Y-117099581D03*
X170180000Y-116155000D03*
X167899581Y-117099581D03*
X166955000Y-119380000D03*
X167899581Y-121660419D03*
X170180000Y-122605000D03*
X172460419Y-121660419D03*
X173405000Y-119380000D03*
D21*
X170180000Y-119380000D03*
D20*
X35300419Y-117099581D03*
X33020000Y-116155000D03*
X30739581Y-117099581D03*
X29795000Y-119380000D03*
X30739581Y-121660419D03*
X33020000Y-122605000D03*
X35300419Y-121660419D03*
X36245000Y-119380000D03*
D21*
X33020000Y-119380000D03*
D20*
X35300419Y-30739581D03*
X33020000Y-29795000D03*
X30739581Y-30739581D03*
X29795000Y-33020000D03*
X30739581Y-35300419D03*
X33020000Y-36245000D03*
X35300419Y-35300419D03*
X36245000Y-33020000D03*
D21*
X33020000Y-33020000D03*
D22*
X41275000Y-67945000D03*
X41275000Y-70485000D03*
D23*
X41275000Y-73025000D03*
D22*
X49530000Y-93980000D03*
X49530000Y-96520000D03*
D23*
X49530000Y-99060000D03*
D24*
X170180000Y-54610000D03*
X170180000Y-92710000D03*
X161290000Y-110490000D03*
X59690000Y-95250000D03*
X104140000Y-75565000D03*
X78740000Y-100330000D03*
X62230000Y-82550000D03*
D25*
X63380000Y-41910000D03*
X55880000Y-41910000D03*
D10*
X160655000Y-47625000D03*
D11*
X160655000Y-62865000D03*
D10*
X101600000Y-93980000D03*
D11*
X91440000Y-93980000D03*
D10*
X78740000Y-94488000D03*
D11*
X88900000Y-94488000D03*
D10*
X70612000Y-97028000D03*
D11*
X70612000Y-86868000D03*
D10*
X70612000Y-109728000D03*
D11*
X70612000Y-99568000D03*
D10*
X73660000Y-109728000D03*
D11*
X73660000Y-99568000D03*
D10*
X64516000Y-97028000D03*
D11*
X64516000Y-86868000D03*
D26*
X142131693Y-108820307D02*
X142131693Y-108820307D01*
D11*
X152908000Y-98044000D03*
D10*
X111252000Y-109728000D03*
D11*
X96012000Y-109728000D03*
X151830126Y-80579874D03*
X154305000Y-78105000D03*
D27*
X45085000Y-109220000D03*
X45085000Y-83820000D03*
D28*
X151130000Y-60960000D03*
D29*
X151130000Y-71120000D03*
D28*
X146050000Y-76200000D03*
D29*
X135890000Y-76200000D03*
D28*
X139700000Y-80010000D03*
D29*
X129540000Y-80010000D03*
D28*
X124460000Y-80010000D03*
D29*
X114300000Y-80010000D03*
D28*
X147320000Y-86360000D03*
D29*
X157480000Y-86360000D03*
D28*
X129540000Y-86360000D03*
D29*
X139700000Y-86360000D03*
D28*
X114300000Y-85090000D03*
D29*
X124460000Y-85090000D03*
D28*
X45085000Y-76835000D03*
D29*
X45085000Y-66675000D03*
D28*
X53340000Y-91440000D03*
D29*
X53340000Y-101600000D03*
D28*
X50165000Y-76835000D03*
D29*
X60325000Y-76835000D03*
D28*
X60325000Y-73025000D03*
D29*
X50165000Y-73025000D03*
D30*
X73660000Y-62230000D03*
D31*
X73660000Y-57150000D03*
X73660000Y-52070000D03*
X73660000Y-46990000D03*
D19*
X145810000Y-60960000D03*
X130810000Y-60960000D03*
X126640000Y-62230000D03*
X104140000Y-62230000D03*
X145810000Y-69850000D03*
X130810000Y-69850000D03*
X126760000Y-72390000D03*
X111760000Y-72390000D03*
X153430000Y-92710000D03*
X138430000Y-92710000D03*
X136800000Y-102870000D03*
X114300000Y-102870000D03*
X133110000Y-92710000D03*
X118110000Y-92710000D03*
D11*
X78740000Y-90130000D03*
D14*
X78740000Y-87630000D03*
D11*
X93392000Y-108712000D03*
X88392000Y-108712000D03*
X94488000Y-105076000D03*
X94488000Y-100076000D03*
D19*
X91440000Y-86360000D03*
D32*
X91440000Y-81360000D03*
D11*
X80264000Y-109728000D03*
X80264000Y-104728000D03*
X83900000Y-91440000D03*
X88900000Y-91440000D03*
X67564000Y-89488000D03*
X67564000Y-94488000D03*
X76708000Y-104728000D03*
X76708000Y-109728000D03*
X55880000Y-87590000D03*
D14*
X55880000Y-85090000D03*
D11*
X50800000Y-68270000D03*
D14*
X50800000Y-64770000D03*
D19*
X71120000Y-79255000D03*
D32*
X71120000Y-71755000D03*
D11*
X59690000Y-68270000D03*
D14*
X59690000Y-64770000D03*
D19*
X63260000Y-54610000D03*
X48260000Y-54610000D03*
X48500000Y-48260000D03*
X63500000Y-48260000D03*
D25*
X41910000Y-50640000D03*
X41910000Y-40640000D03*
M02*
