M48
; DRILL file {KiCad (5.99.0-1101-g9de7547c2)} date Thu Mar 19 22:24:51 2020
; FORMAT={-:-/ absolute / inch / decimal}
; #@! TF.CreationDate,2020-03-19T22:24:51-06:00
; #@! TF.GenerationSoftware,Kicad,Pcbnew,(5.99.0-1101-g9de7547c2)
; #@! TF.FileFunction,Plated,1,2,PTH
FMAT,2
INCH
T1C0.0157
T2C0.0236
T3C0.0276
T4C0.0315
T5C0.0394
T6C0.0433
T7C0.0472
T8C0.0551
T9C0.0630
T10C0.0709
T11C0.1378
T12C0.1693
%
G90
G05
T1
X3.78Y-3.72
X3.78Y-3.8
X3.78Y-3.85
X3.8Y-3.76
X3.82Y-3.72
X3.84Y-3.76
X3.86Y-3.72
T2
X1.173Y-1.3
X1.2102Y-1.2102
X1.2102Y-1.3898
X1.3Y-1.173
X1.3Y-1.427
X1.3898Y-1.2102
X1.3898Y-1.3898
X1.427Y-1.3
X6.573Y-4.7
X6.6102Y-4.6102
X6.6102Y-4.7898
X6.7Y-4.573
X6.7Y-4.827
X6.7898Y-4.6102
X6.7898Y-4.7898
X6.827Y-4.7
X1.173Y-4.7
X1.2102Y-4.6102
X1.2102Y-4.7898
X1.3Y-4.573
X1.3Y-4.827
X1.3898Y-4.6102
X1.3898Y-4.7898
X1.427Y-4.7
X6.573Y-1.3
X6.6102Y-1.2102
X6.6102Y-1.3898
X6.7Y-1.173
X6.7Y-1.427
X6.7898Y-1.2102
X6.7898Y-1.3898
X6.827Y-1.3
T3
X2.44Y-4.22
X2.64Y-4.12
X2.64Y-4.32
T4
X3.72Y-3.94
X3.72Y-4.1369
X5.9776Y-3.1724
X6.075Y-3.075
X3.3031Y-3.6
X3.5Y-3.6
X1.425Y-2.625
X1.425Y-3.025
X2.0Y-2.55
X2.0Y-2.6878
X2.54Y-3.42
X2.54Y-3.82
X6.325Y-2.6
X6.325Y-3.2
X2.78Y-3.92
X2.78Y-4.32
X1.625Y-2.375
X1.625Y-2.4734
X6.325Y-1.875
X6.325Y-2.475
X3.48Y-4.28
X3.6769Y-4.28
X2.78Y-3.42
X2.78Y-3.82
X5.6Y-1.7
X6.2Y-1.7
X3.3Y-3.85
X3.3Y-3.95
X3.3Y-4.05
X3.3Y-4.15
X3.6Y-3.85
X3.6Y-3.95
X3.6Y-4.05
X3.6Y-4.15
X2.66Y-3.5231
X2.66Y-3.72
X1.3Y-2.625
X1.3Y-3.025
X3.1Y-3.45
X3.1Y-3.5484
X2.35Y-2.55
X2.35Y-2.6878
X4.25Y-3.125
X4.25Y-3.625
X3.02Y-4.1231
X3.02Y-4.32
X4.25Y-3.75
X4.25Y-3.9469
X3.6Y-3.7
X4.0Y-3.7
X3.78Y-4.32
X4.38Y-4.32
X2.2Y-3.35
X2.2Y-3.4484
X4.8Y-1.9
X5.4Y-1.9
X3.16Y-4.1231
X3.16Y-4.32
X5.5957Y-4.2843
X6.02Y-3.86
X3.1Y-3.72
X3.5Y-3.72
X2.9Y-3.92
X2.9Y-4.32
T5
X2.2Y-1.65
X2.4953Y-1.65
X1.65Y-1.6
X1.65Y-1.9937
T6
X4.5Y-1.3
X3.7Y-1.3
X3.9Y-1.3
X5.1Y-3.15
X5.5Y-3.15
X1.95Y-3.7
X1.95Y-3.8
X1.95Y-3.9
X5.8Y-3.4
X6.2Y-3.4
X2.8Y-1.3
X1.975Y-3.025
X2.375Y-3.025
X3.4Y-1.3
X1.625Y-2.675
X1.625Y-2.775
X1.625Y-2.875
X5.6Y-1.3
X6.7Y-2.4
X1.9Y-1.3
X2.5Y-1.3
X5.95Y-2.4
X5.95Y-2.8
X1.6Y-1.3
X5.35Y-3.0
X5.75Y-3.0
X3.1Y-1.3
X1.775Y-2.625
X1.775Y-3.025
X4.5Y-3.15
X4.9Y-3.15
X2.2Y-1.3
X1.975Y-2.875
X2.375Y-2.875
X1.3Y-3.15
X4.5Y-3.35
X4.9Y-3.35
X1.3Y-2.45
X2.1Y-3.6
X2.1Y-4.0
X4.7Y-1.3
X6.7Y-3.4
X5.8Y-1.3
X5.1Y-3.4
X5.5Y-3.4
T7
X4.4Y-2.85
X4.9906Y-2.85
X4.65Y-3.65
X5.2406Y-3.65
X4.5Y-4.05
X5.3858Y-4.05
X1.9094Y-1.9
X2.5Y-1.9
X4.1Y-2.45
X4.9858Y-2.45
X2.8Y-2.825
X2.8Y-3.1203
X5.45Y-3.65
X6.0406Y-3.65
X4.6Y-1.7
X5.4Y-1.7
X1.9Y-2.15
X2.4906Y-2.15
X5.15Y-2.75
X5.7406Y-2.75
X5.15Y-2.4
X5.7406Y-2.4
X3.6Y-3.2031
X3.6Y-3.4
T8
X6.7Y-2.15
X2.35Y-3.75
X2.45Y-3.25
X3.1Y-3.95
X6.35Y-4.35
X6.7Y-3.65
X4.1Y-2.975
T9
X2.9Y-1.85
X2.9Y-2.05
X2.9Y-2.25
X2.9Y-2.45
T10
X3.3Y-2.35
X3.8709Y-2.35
T11
X1.775Y-3.3
X1.775Y-4.3
T12
X1.3Y-1.3
X6.7Y-4.7
X1.3Y-4.7
X6.7Y-1.3
T0
M30
