G04 #@! TF.GenerationSoftware,KiCad,Pcbnew,(5.99.0-1101-g9de7547c2)*
G04 #@! TF.CreationDate,2020-03-19T22:24:48-06:00*
G04 #@! TF.ProjectId,pcb-power,7063622d-706f-4776-9572-2e6b69636164,rev?*
G04 #@! TF.SameCoordinates,Original*
G04 #@! TF.FileFunction,Profile,NP*
%FSLAX46Y46*%
G04 Gerber Fmt 4.6, Leading zero omitted, Abs format (unit mm)*
G04 Created by KiCad (PCBNEW (5.99.0-1101-g9de7547c2)) date 2020-03-19 22:24:48*
%MOMM*%
%LPD*%
G01*
G04 APERTURE LIST*
%ADD10C,0.050000*%
G04 APERTURE END LIST*
D10*
X142240000Y-81915000D02*
G75*
G02*
X142240000Y-83185000I0J-635000D01*
G01*
X123190000Y-83185000D02*
G75*
G02*
X123190000Y-81915000I0J635000D01*
G01*
X142240000Y-83185000D02*
X123190000Y-83185000D01*
X123190000Y-81915000D02*
X142240000Y-81915000D01*
X101600000Y-30480000D02*
X101600000Y-35560000D01*
X101600000Y-30480000D02*
G75*
G02*
X104140000Y-30480000I1270000J0D01*
G01*
X104140000Y-30480000D02*
X104140000Y-35560000D01*
X104140000Y-35560000D02*
G75*
G02*
X101600000Y-35560000I-1270000J0D01*
G01*
X88900000Y-30480000D02*
X88900000Y-35560000D01*
X91440000Y-35560000D02*
G75*
G02*
X88900000Y-35560000I-1270000J0D01*
G01*
X88900000Y-30480000D02*
G75*
G02*
X91440000Y-30480000I1270000J0D01*
G01*
X91440000Y-30480000D02*
X91440000Y-35560000D01*
X45720000Y-30480000D02*
X45720000Y-35560000D01*
X45720000Y-35560000D02*
G75*
G02*
X43180000Y-35560000I-1270000J0D01*
G01*
X43180000Y-30480000D02*
X43180000Y-35560000D01*
X43180000Y-30480000D02*
G75*
G02*
X45720000Y-30480000I1270000J0D01*
G01*
X50800000Y-30480000D02*
X50800000Y-35560000D01*
X50800000Y-30480000D02*
G75*
G02*
X53340000Y-30480000I1270000J0D01*
G01*
X53340000Y-30480000D02*
X53340000Y-35560000D01*
X53340000Y-35560000D02*
G75*
G02*
X50800000Y-35560000I-1270000J0D01*
G01*
X76200000Y-35560000D02*
G75*
G02*
X73660000Y-35560000I-1270000J0D01*
G01*
X73660000Y-30480000D02*
G75*
G02*
X76200000Y-30480000I1270000J0D01*
G01*
X76200000Y-30480000D02*
X76200000Y-35560000D01*
X73660000Y-30480000D02*
X73660000Y-35560000D01*
X42926000Y-55880000D02*
G75*
G02*
X45466000Y-55880000I1270000J0D01*
G01*
X45466000Y-57150000D02*
X45466000Y-55880000D01*
X42926000Y-58420000D02*
X42926000Y-55880000D01*
X45466000Y-60960000D02*
G75*
G02*
X42926000Y-58420000I0J2540000D01*
G01*
X46736000Y-58420000D02*
G75*
G02*
X45466000Y-57150000I0J1270000D01*
G01*
X63500000Y-58420000D02*
G75*
G02*
X63500000Y-60960000I0J-1270000D01*
G01*
X63500000Y-60960000D02*
X45466000Y-60960000D01*
X46736000Y-58420000D02*
X63500000Y-58420000D01*
X68580000Y-55880000D02*
G75*
G02*
X66040000Y-55880000I-1270000J0D01*
G01*
X66040000Y-40640000D02*
G75*
G02*
X68580000Y-40640000I1270000J0D01*
G01*
X68580000Y-55880000D02*
X68580000Y-40640000D01*
X66040000Y-40640000D02*
X66040000Y-55880000D01*
X177800000Y-127000000D02*
X25400000Y-127000000D01*
X177800000Y-25400000D02*
X177800000Y-127000000D01*
X25400000Y-25400000D02*
X177800000Y-25400000D01*
X25400000Y-127000000D02*
X25400000Y-25400000D01*
M02*
