G04 #@! TF.GenerationSoftware,KiCad,Pcbnew,(5.99.0-1101-g9de7547c2)*
G04 #@! TF.CreationDate,2020-03-19T22:24:47-06:00*
G04 #@! TF.ProjectId,pcb-power,7063622d-706f-4776-9572-2e6b69636164,rev?*
G04 #@! TF.SameCoordinates,Original*
G04 #@! TF.FileFunction,Paste,Top*
G04 #@! TF.FilePolarity,Positive*
%FSLAX46Y46*%
G04 Gerber Fmt 4.6, Leading zero omitted, Abs format (unit mm)*
G04 Created by KiCad (PCBNEW (5.99.0-1101-g9de7547c2)) date 2020-03-19 22:24:47*
%MOMM*%
%LPD*%
G01*
G04 APERTURE LIST*
%ADD10R,1.500000X2.000000*%
%ADD11R,3.800000X2.000000*%
%ADD12R,1.200000X0.900000*%
G04 APERTURE END LIST*
D10*
X99300000Y-90780000D03*
X103900000Y-90780000D03*
D11*
X101600000Y-84480000D03*
G36*
X98265109Y-95880038D02*
G01*
X98346247Y-95934253D01*
X98400462Y-96015391D01*
X98419500Y-96111100D01*
X98419500Y-98960900D01*
X98400462Y-99056609D01*
X98346247Y-99137747D01*
X98265109Y-99191962D01*
X98169400Y-99211000D01*
X97144600Y-99211000D01*
X97048891Y-99191962D01*
X96967753Y-99137747D01*
X96913538Y-99056609D01*
X96894500Y-98960900D01*
X96894500Y-96111100D01*
X96913538Y-96015391D01*
X96967753Y-95934253D01*
X97048891Y-95880038D01*
X97144600Y-95861000D01*
X98169400Y-95861000D01*
X98265109Y-95880038D01*
G37*
G36*
X104240171Y-95880030D02*
G01*
X104321277Y-95934223D01*
X104375470Y-96015329D01*
X104394500Y-96110999D01*
X104394500Y-98961001D01*
X104375470Y-99056671D01*
X104321277Y-99137777D01*
X104240171Y-99191970D01*
X104144501Y-99211000D01*
X103119499Y-99211000D01*
X103023829Y-99191970D01*
X102942723Y-99137777D01*
X102888530Y-99056671D01*
X102869500Y-98961001D01*
X102869500Y-96110999D01*
X102888530Y-96015329D01*
X102942723Y-95934223D01*
X103023829Y-95880030D01*
X103119499Y-95861000D01*
X104144501Y-95861000D01*
X104240171Y-95880030D01*
G37*
G36*
X100621671Y-100527030D02*
G01*
X100702777Y-100581223D01*
X100756970Y-100662329D01*
X100776000Y-100757999D01*
X100776000Y-101408001D01*
X100756970Y-101503671D01*
X100702777Y-101584777D01*
X100621671Y-101638970D01*
X100526001Y-101658000D01*
X99625999Y-101658000D01*
X99530329Y-101638970D01*
X99449223Y-101584777D01*
X99395030Y-101503671D01*
X99376000Y-101408001D01*
X99376000Y-100757999D01*
X99395030Y-100662329D01*
X99449223Y-100581223D01*
X99530329Y-100527030D01*
X99625999Y-100508000D01*
X100526001Y-100508000D01*
X100621671Y-100527030D01*
G37*
G36*
X100621671Y-102577030D02*
G01*
X100702777Y-102631223D01*
X100756970Y-102712329D01*
X100776000Y-102807999D01*
X100776000Y-103458001D01*
X100756970Y-103553671D01*
X100702777Y-103634777D01*
X100621671Y-103688970D01*
X100526001Y-103708000D01*
X99625999Y-103708000D01*
X99530329Y-103688970D01*
X99449223Y-103634777D01*
X99395030Y-103553671D01*
X99376000Y-103458001D01*
X99376000Y-102807999D01*
X99395030Y-102712329D01*
X99449223Y-102631223D01*
X99530329Y-102577030D01*
X99625999Y-102558000D01*
X100526001Y-102558000D01*
X100621671Y-102577030D01*
G37*
D12*
X97536000Y-100458000D03*
X97536000Y-103758000D03*
M02*
